<svg width="49" height="35" viewBox="0 0 49 35" fill="none" xmlns="http://www.w3.org/2000/svg">
<g clip-path="url(#clip0_1130_1171)">
<path d="M0 0V35H49V0H0Z" fill="#DB000D"/>
<path d="M21.854 6.83594C20.8764 6.08434 20.5887 4.64844 20.5312 4.16992C20.5312 4.16842 20.5313 4.16715 20.5312 4.16565C20.6488 4.26522 20.7928 4.32373 20.9482 4.32373C21.3452 4.32373 21.6671 3.94116 21.6671 3.46924C21.6671 2.99732 21.3452 2.61475 20.9482 2.61475C20.6955 2.61475 20.4725 2.76923 20.3443 3.00354C20.3534 2.94918 20.3587 2.89446 20.3587 2.83691C20.3587 2.36499 20.0368 1.98242 19.6398 1.98242C19.2428 1.98242 18.9209 2.36499 18.9209 2.83691C18.9209 3.30884 19.2428 3.69141 19.6398 3.69141C19.6495 3.69141 19.6589 3.68759 19.6686 3.68713C19.668 3.68813 19.6691 3.6904 19.6686 3.69141L21.0488 8.88672" fill="#F9D90F"/>
<path d="M21.854 6.83594C20.8764 6.08434 20.5887 4.64844 20.5312 4.16992C20.5312 4.16842 20.5313 4.16715 20.5312 4.16565C20.6488 4.26522 20.7928 4.32373 20.9482 4.32373C21.3452 4.32373 21.6671 3.94116 21.6671 3.46924C21.6671 2.99732 21.3452 2.61475 20.9482 2.61475C20.6955 2.61475 20.4725 2.76923 20.3443 3.00354C20.3534 2.94918 20.3587 2.89446 20.3587 2.83691C20.3587 2.36499 20.0368 1.98242 19.6398 1.98242C19.2428 1.98242 18.9209 2.36499 18.9209 2.83691C18.9209 3.30884 19.2428 3.69141 19.6398 3.69141C19.6495 3.69141 19.6589 3.68759 19.6686 3.68713C19.668 3.68813 19.6691 3.6904 19.6686 3.69141L21.0488 8.88672" stroke="black" stroke-width="0.2"/>
<path d="M20.4871 6.70599C20.5956 6.67381 20.7104 6.69315 20.8071 6.7599C20.9038 6.82664 20.9748 6.93555 21.0051 7.06351C21.0354 7.19147 21.0225 7.3284 20.9692 7.44527C20.9159 7.56213 20.8264 7.64972 20.7197 7.68945" fill="black"/>
<path d="M21.0488 9.16032C22.1991 10.2541 26.8 10.2541 27.9502 9.16032C25.4871 7.61349 23.1671 7.42808 21.0488 9.16032Z" fill="#F9D90F" stroke="black" stroke-width="0.2" stroke-linejoin="round"/>
<path d="M27.9507 8.88672L29.331 3.69141C29.3305 3.69024 29.3314 3.6883 29.331 3.68713C29.3406 3.68758 29.35 3.69141 29.3597 3.69141C29.7567 3.69141 30.0786 3.30884 30.0786 2.83691C30.0786 2.36499 29.7567 1.98242 29.3597 1.98242C28.9627 1.98242 28.6408 2.36499 28.6408 2.83691C28.6408 2.89446 28.6461 2.94918 28.6552 3.00354C28.527 2.76923 28.304 2.61475 28.0513 2.61475C27.6543 2.61475 27.3324 2.99732 27.3324 3.46924C27.3324 3.94116 27.6543 4.32373 28.0513 4.32373C28.2067 4.32373 28.3507 4.26522 28.4683 4.16565C28.4689 4.16667 28.4677 4.1689 28.4683 4.16992C28.4108 4.64844 28.1231 6.08434 27.1455 6.83594" fill="#F9D90F"/>
<path d="M27.9507 8.88672L29.331 3.69141C29.3305 3.69024 29.3314 3.6883 29.331 3.68713C29.3406 3.68758 29.35 3.69141 29.3597 3.69141C29.7567 3.69141 30.0786 3.30884 30.0786 2.83691C30.0786 2.36499 29.7567 1.98242 29.3597 1.98242C28.9627 1.98242 28.6408 2.36499 28.6408 2.83691C28.6408 2.89446 28.6461 2.94918 28.6552 3.00354C28.527 2.76923 28.304 2.61475 28.0513 2.61475C27.6543 2.61475 27.3324 2.99732 27.3324 3.46924C27.3324 3.94116 27.6543 4.32373 28.0513 4.32373C28.2067 4.32373 28.3507 4.26522 28.4683 4.16565C28.4689 4.16667 28.4677 4.1689 28.4683 4.16992C28.4108 4.64844 28.1231 6.08434 27.1455 6.83594" stroke="black" stroke-opacity="0.984314" stroke-width="0.2"/>
<path d="M28.5129 6.70599C28.4044 6.67381 28.2896 6.69315 28.1929 6.7599C28.0962 6.82664 28.0252 6.93555 27.9949 7.06351C27.9646 7.19147 27.9775 7.3284 28.0308 7.44527C28.0841 7.56213 28.1736 7.64972 28.2803 7.68945" fill="black"/>
<path d="M25.4197 6.15234C25.7648 6.28906 26.915 6.5625 27.1451 6.83594C27.3324 7.16992 27.9502 8.47656 27.9502 8.61328C27.9502 8.75 27.9502 8.98242 27.9502 9.16016C25.5347 8.06641 23.4643 8.06641 21.0488 9.16016C21.0488 8.99984 21.0488 8.75 21.0488 8.61328C21.0488 8.47656 21.6625 7.17739 21.854 6.83594C22.084 6.5625 23.2343 6.28906 23.5793 6.15234" fill="#F9D90F"/>
<path d="M25.4197 6.15234C25.7648 6.28906 26.915 6.5625 27.1451 6.83594C27.3324 7.16992 27.9502 8.47656 27.9502 8.61328C27.9502 8.75 27.9502 8.98242 27.9502 9.16016C25.5347 8.06641 23.4643 8.06641 21.0488 9.16016C21.0488 8.99984 21.0488 8.75 21.0488 8.61328C21.0488 8.47656 21.6625 7.17739 21.854 6.83594C22.084 6.5625 23.2343 6.28906 23.5793 6.15234" stroke="black" stroke-width="0.2" stroke-linecap="round" stroke-linejoin="round"/>
<path d="M24.4995 0.683594C24.1263 0.683594 23.8238 1.04321 23.8238 1.48682C23.8238 1.65317 23.8659 1.80723 23.9388 1.93542C23.838 1.85685 23.7194 1.81152 23.5937 1.81152C23.2205 1.81152 22.918 2.2094 22.918 2.7002C22.918 3.191 23.2205 3.58887 23.5937 3.58887C23.827 3.58887 24.033 3.43219 24.1545 3.1958V4.64844C24.1545 4.78516 23.6944 6.15234 23.4643 6.28906L24.4995 7.79297L25.5348 6.28906C25.3047 6.15234 24.8446 4.78516 24.8446 4.64844V3.1958C24.9661 3.43219 25.1721 3.58887 25.4054 3.58887C25.7786 3.58887 26.0811 3.191 26.0811 2.7002C26.0811 2.2094 25.7786 1.81152 25.4054 1.81152C25.2797 1.81152 25.1611 1.85685 25.0603 1.93542C25.1331 1.80723 25.1753 1.65317 25.1753 1.48682C25.1753 1.04321 24.8728 0.683594 24.4995 0.683594Z" fill="#F9D90F" stroke="black" stroke-width="0.2"/>
<path d="M24.4984 5.77676C24.3844 5.77965 24.2761 5.83621 24.1972 5.93399C24.1184 6.03178 24.0754 6.16279 24.0777 6.29823C24.0801 6.43368 24.1276 6.56247 24.2098 6.65629C24.292 6.75011 24.4022 6.80129 24.5162 6.79858C24.6301 6.79586 24.7385 6.73947 24.8175 6.64181C24.8965 6.54414 24.9396 6.4132 24.9374 6.27775C24.9352 6.1423 24.8878 6.01344 24.8057 5.91949C24.7236 5.82554 24.6135 5.7742 24.4995 5.77674" fill="black"/>
<path d="M14.4932 15.5857C14.8922 14.6287 16.2018 17.0426 15.1114 17.0426L14.4932 15.5857Z" fill="#F9D90F"/>
<path d="M14.4932 15.5857C14.8922 14.6287 16.2018 17.0426 15.1114 17.0426" stroke="black" stroke-width="0.2" stroke-linecap="square"/>
<path d="M14.1484 16.1329C14.4935 14.3556 15.8738 17.3634 14.6085 17.2984L14.1484 16.1329Z" fill="#F9D90F"/>
<path d="M14.1484 16.1329C14.4935 14.3556 15.8738 17.3634 14.6085 17.2984" stroke="black" stroke-width="0.2"/>
<path d="M13.75 16.6154C14.0337 14.7658 15.4139 18.1838 14.0337 17.7736L13.75 16.6154Z" fill="#F9D90F"/>
<path d="M13.75 16.6154C14.0337 14.7658 15.4139 18.1838 14.0337 17.7736" stroke="black" stroke-width="0.2"/>
<path d="M26.0964 11.3652C21.9914 11.3613 17.8507 12.4675 15.1836 15.0396L15.9888 16.1333C20.1276 14.3113 25.4908 14.3737 29.3926 15.83C29.6104 15.1677 30.145 14.6978 30.7693 14.6978C31.5872 14.6978 32.2502 15.5012 32.2502 16.4922C32.2502 16.7635 32.199 17.0179 32.11 17.2484C32.8153 17.7631 33.3962 18.3514 33.8174 19.0044C33.8174 16.1333 37.0381 15.5864 38.5334 16.1333C36.5923 13.2109 31.3744 11.3704 26.0964 11.3652Z" fill="white" stroke="black" stroke-width="0.2"/>
<path d="M13.2285 17.2266C13.5736 15.0391 14.8388 18.5938 13.5736 18.047L13.2285 17.2266Z" fill="#F9D90F"/>
<path d="M13.2285 17.2266C13.5736 15.0391 14.8388 18.5938 13.5736 18.047" stroke="black" stroke-width="0.2"/>
<path d="M12.8828 17.4999C13.1612 15.9408 14.3311 18.9025 13.1129 18.5264L12.8828 17.4999Z" fill="#F9D90F"/>
<path d="M12.8828 17.4999C13.1612 15.9408 14.3311 18.9025 13.1129 18.5264" stroke="black" stroke-width="0.2" stroke-linecap="square"/>
<path d="M12.4727 18.0153C12.7682 16.4059 13.7341 19.104 12.7333 18.8442L12.4727 18.0153Z" fill="#F9D90F"/>
<path d="M12.4727 18.0153C12.7682 16.4059 13.7341 19.104 12.7333 18.8442" stroke="black" stroke-width="0.2" stroke-linecap="square"/>
<path d="M12.0605 18.3631C12.3812 17.0589 13.3017 19.3978 12.3082 19.1419L12.0605 18.3631Z" fill="#F9D90F"/>
<path d="M12.0605 18.3631C12.3812 17.0589 13.3017 19.3978 12.3082 19.1419" stroke="black" stroke-width="0.2" stroke-linecap="square"/>
<path d="M12.3286 18.6865C12.438 18.9863 12.4244 19.2821 12.2982 19.3471C12.1721 19.4121 11.9812 19.2217 11.8718 18.9218C11.7625 18.622 11.7761 18.3262 11.9022 18.2612C12.0283 18.1962 12.2193 18.3866 12.3286 18.6865Z" fill="#F9D90F" stroke="black" stroke-opacity="0.984314" stroke-width="0.2" stroke-linecap="square" stroke-linejoin="round"/>
<path d="M12.0323 18.9266C12.1513 19.2146 12.1605 19.499 12.0528 19.5619C11.9452 19.6248 11.7613 19.4423 11.6423 19.1543C11.5233 18.8663 11.5141 18.5818 11.6218 18.5189C11.7294 18.4561 11.9132 18.6386 12.0323 18.9266Z" fill="#F9D90F" stroke="black" stroke-opacity="0.984314" stroke-width="0.2" stroke-linecap="square" stroke-linejoin="round"/>
<path d="M11.9092 19.6882C11.9092 20.1815 11.5728 20.5814 11.1577 20.5814C10.7427 20.5814 10.4062 20.1815 10.4062 19.6882C10.4062 19.1948 10.7427 18.7949 11.1577 18.7949C11.5728 18.7949 11.9092 19.1948 11.9092 19.6882Z" fill="#F9D90F" stroke="black" stroke-opacity="0.984314" stroke-width="0.2" stroke-linecap="round" stroke-linejoin="round"/>
<path d="M11.6175 19.6875C11.6175 19.9895 11.4115 20.2344 11.1574 20.2344C10.9033 20.2344 10.6973 19.9895 10.6973 19.6875C10.6973 19.3855 10.9033 19.1406 11.1574 19.1406C11.4115 19.1406 11.6175 19.3855 11.6175 19.6875Z" fill="black"/>
<path d="M13.4582 13.2613C13.3018 12.9879 13.5071 12.386 13.8752 12.3771C14.2633 12.3677 14.7234 12.8512 14.1483 13.398L15.2986 15.1754H15.6436L15.9557 15.7427L15.8406 16.1528L17.0239 18.0465C17.599 17.3629 17.9441 18.3199 17.7715 18.5934C17.6558 18.7766 17.203 19.1402 16.9089 18.7301L13.4582 13.2613Z" fill="#F9D90F" stroke="black" stroke-width="0.2"/>
<path d="M14.5068 22.4803C14.9058 21.5232 16.2155 23.9372 15.1251 23.9372L14.5068 22.4803Z" fill="#F9D90F"/>
<path d="M14.5068 22.4803C14.9058 21.5232 16.2155 23.9372 15.1251 23.9372" stroke="black" stroke-width="0.2" stroke-linecap="square"/>
<path d="M14.1621 23.0274C14.5072 21.2501 15.8875 24.2579 14.6222 24.1929L14.1621 23.0274Z" fill="#F9D90F"/>
<path d="M14.1621 23.0274C14.5072 21.2501 15.8875 24.2579 14.6222 24.1929" stroke="black" stroke-width="0.2"/>
<path d="M13.7637 23.5099C14.0473 21.6604 15.4276 25.0783 14.0473 24.6682L13.7637 23.5099Z" fill="#F9D90F"/>
<path d="M13.7637 23.5099C14.0473 21.6604 15.4276 25.0783 14.0473 24.6682" stroke="black" stroke-width="0.2"/>
<path d="M26.1101 18.2598C22.0051 18.2558 17.8644 19.3621 15.1973 21.9341L16.0024 23.0278C20.1412 21.2058 25.5045 21.2683 29.4063 22.7245C29.6241 22.0622 30.1587 21.5923 30.7829 21.5923C31.6008 21.5923 32.2639 22.3957 32.2639 23.3867C32.2639 23.6581 32.2127 23.9124 32.1237 24.143C32.829 24.6577 33.4099 25.2459 33.8311 25.8989C33.8311 23.0278 37.0517 22.481 38.547 23.0278C36.606 20.1055 31.388 18.2649 26.1101 18.2598Z" fill="white" stroke="black" stroke-width="0.2"/>
<path d="M13.2422 24.1212C13.5873 21.9337 14.8525 25.4884 13.5873 24.9415L13.2422 24.1212Z" fill="#F9D90F"/>
<path d="M13.2422 24.1212C13.5873 21.9337 14.8525 25.4884 13.5873 24.9415" stroke="black" stroke-width="0.2"/>
<path d="M12.8965 24.3944C13.1748 22.8353 14.3447 25.7971 13.1265 25.4209L12.8965 24.3944Z" fill="#F9D90F"/>
<path d="M12.8965 24.3944C13.1748 22.8353 14.3447 25.7971 13.1265 25.4209" stroke="black" stroke-width="0.2" stroke-linecap="square"/>
<path d="M12.4863 24.9099C12.7819 23.3004 13.7478 25.9985 12.7469 25.7387L12.4863 24.9099Z" fill="#F9D90F"/>
<path d="M12.4863 24.9099C12.7819 23.3004 13.7478 25.9985 12.7469 25.7387" stroke="black" stroke-width="0.2" stroke-linecap="square"/>
<path d="M12.0742 25.2576C12.3949 23.9534 13.3153 26.2923 12.3219 26.0365L12.0742 25.2576Z" fill="#F9D90F"/>
<path d="M12.0742 25.2576C12.3949 23.9534 13.3153 26.2923 12.3219 26.0365" stroke="black" stroke-width="0.2" stroke-linecap="square"/>
<path d="M12.3423 25.581C12.4517 25.8808 12.4381 26.1766 12.3119 26.2416C12.1858 26.3066 11.9949 26.1162 11.8855 25.8164C11.7762 25.5165 11.7898 25.2207 11.9159 25.1558C12.042 25.0908 12.2329 25.2811 12.3423 25.581Z" fill="#F9D90F" stroke="black" stroke-opacity="0.984314" stroke-width="0.2" stroke-linecap="square" stroke-linejoin="round"/>
<path d="M12.046 25.8211C12.165 26.1091 12.1742 26.3936 12.0665 26.4564C11.9588 26.5193 11.775 26.3368 11.656 26.0488C11.5369 25.7608 11.5277 25.4764 11.6354 25.4135C11.7431 25.3506 11.9269 25.5331 12.046 25.8211Z" fill="#F9D90F" stroke="black" stroke-opacity="0.984314" stroke-width="0.2" stroke-linecap="square" stroke-linejoin="round"/>
<path d="M11.9229 26.5827C11.9229 27.076 11.5864 27.4759 11.1714 27.4759C10.7564 27.4759 10.4199 27.076 10.4199 26.5827C10.4199 26.0894 10.7564 25.6895 11.1714 25.6895C11.5864 25.6895 11.9229 26.0894 11.9229 26.5827Z" fill="#F9D90F" stroke="black" stroke-opacity="0.984314" stroke-width="0.2" stroke-linecap="round" stroke-linejoin="round"/>
<path d="M11.6311 26.582C11.6311 26.8841 11.4251 27.1289 11.171 27.1289C10.9169 27.1289 10.7109 26.8841 10.7109 26.582C10.7109 26.28 10.9169 26.0352 11.171 26.0352C11.4251 26.0352 11.6311 26.28 11.6311 26.582Z" fill="black"/>
<path d="M13.4718 20.1559C13.3155 19.8824 13.5208 19.2805 13.8889 19.2716C14.277 19.2623 14.7371 19.7457 14.162 20.2926L15.3122 22.0699H15.6573L15.9693 22.6372L15.8543 23.0473L17.0376 24.941C17.6127 24.2574 17.9578 25.2144 17.7852 25.4879C17.6695 25.6711 17.2167 26.0348 16.9226 25.6246L13.4718 20.1559Z" fill="#F9D90F" stroke="black" stroke-width="0.2"/>
<path d="M14.4932 29.3416C14.8922 28.3846 16.2018 30.7985 15.1114 30.7985L14.4932 29.3416Z" fill="#F9D90F"/>
<path d="M14.4932 29.3416C14.8922 28.3846 16.2018 30.7985 15.1114 30.7985" stroke="black" stroke-width="0.2" stroke-linecap="square"/>
<path d="M14.1484 29.8888C14.4935 28.1114 15.8738 31.1192 14.6085 31.0543L14.1484 29.8888Z" fill="#F9D90F"/>
<path d="M14.1484 29.8888C14.4935 28.1114 15.8738 31.1192 14.6085 31.0543" stroke="black" stroke-width="0.2"/>
<path d="M13.75 30.3713C14.0337 28.5217 15.4139 31.9396 14.0337 31.5295L13.75 30.3713Z" fill="#F9D90F"/>
<path d="M13.75 30.3713C14.0337 28.5217 15.4139 31.9396 14.0337 31.5295" stroke="black" stroke-width="0.2"/>
<path d="M26.0964 25.1211C21.9914 25.1171 17.8507 26.2234 15.1836 28.7954L15.9888 29.8892C20.1276 28.0672 25.4908 28.1296 29.3926 29.5858C29.6104 28.9235 30.145 28.4536 30.7693 28.4536C31.5872 28.4536 32.2502 29.257 32.2502 30.2481C32.2502 30.5194 32.199 30.7737 32.11 31.0043C32.8153 31.519 33.3962 32.1072 33.8174 32.7603C33.8174 29.8892 37.0381 29.3423 38.5334 29.8892C36.5923 26.9668 31.3744 25.1262 26.0964 25.1211Z" fill="white" stroke="black" stroke-width="0.2"/>
<path d="M13.2285 30.9825C13.5736 28.795 14.8388 32.3497 13.5736 31.8028L13.2285 30.9825Z" fill="#F9D90F"/>
<path d="M13.2285 30.9825C13.5736 28.795 14.8388 32.3497 13.5736 31.8028" stroke="black" stroke-width="0.2"/>
<path d="M12.8828 31.2557C13.1612 29.6967 14.3311 32.6584 13.1129 32.2822L12.8828 31.2557Z" fill="#F9D90F"/>
<path d="M12.8828 31.2557C13.1612 29.6967 14.3311 32.6584 13.1129 32.2822" stroke="black" stroke-width="0.2" stroke-linecap="square"/>
<path d="M12.4727 31.7712C12.7682 30.1618 13.7341 32.8599 12.7333 32.6001L12.4727 31.7712Z" fill="#F9D90F"/>
<path d="M12.4727 31.7712C12.7682 30.1618 13.7341 32.8599 12.7333 32.6001" stroke="black" stroke-width="0.2" stroke-linecap="square"/>
<path d="M12.0605 32.1189C12.3812 30.8147 13.3017 33.1537 12.3082 32.8978L12.0605 32.1189Z" fill="#F9D90F"/>
<path d="M12.0605 32.1189C12.3812 30.8147 13.3017 33.1537 12.3082 32.8978" stroke="black" stroke-width="0.2" stroke-linecap="square"/>
<path d="M12.3286 32.4423C12.438 32.7422 12.4244 33.0379 12.2982 33.1029C12.1721 33.1679 11.9812 32.9775 11.8718 32.6777C11.7625 32.3778 11.7761 32.0821 11.9022 32.0171C12.0283 31.9521 12.2193 32.1425 12.3286 32.4423Z" fill="#F9D90F" stroke="black" stroke-opacity="0.984314" stroke-width="0.2" stroke-linecap="square" stroke-linejoin="round"/>
<path d="M12.0323 32.6824C12.1513 32.9704 12.1605 33.2549 12.0528 33.3178C11.9452 33.3807 11.7613 33.1982 11.6423 32.9102C11.5233 32.6221 11.5141 32.3377 11.6218 32.2748C11.7294 32.2119 11.9132 32.3944 12.0323 32.6824Z" fill="#F9D90F" stroke="black" stroke-opacity="0.984314" stroke-width="0.2" stroke-linecap="square" stroke-linejoin="round"/>
<path d="M11.9092 33.444C11.9092 33.9373 11.5728 34.3372 11.1577 34.3372C10.7427 34.3372 10.4062 33.9373 10.4062 33.444C10.4062 32.9507 10.7427 32.5508 11.1577 32.5508C11.5728 32.5508 11.9092 32.9507 11.9092 33.444Z" fill="#F9D90F" stroke="black" stroke-opacity="0.984314" stroke-width="0.2" stroke-linecap="round" stroke-linejoin="round"/>
<path d="M11.6175 33.4434C11.6175 33.7454 11.4115 33.9902 11.1574 33.9902C10.9033 33.9902 10.6973 33.7454 10.6973 33.4434C10.6973 33.1413 10.9033 32.8965 11.1574 32.8965C11.4115 32.8965 11.6175 33.1413 11.6175 33.4434Z" fill="black"/>
<path d="M13.4582 27.0172C13.3018 26.7437 13.5071 26.1418 13.8752 26.1329C14.2633 26.1236 14.7234 26.607 14.1483 27.1539L15.2986 28.9312H15.6436L15.9557 29.4985L15.8406 29.9087L17.0239 31.8023C17.599 31.1187 17.9441 32.0758 17.7715 32.3492C17.6558 32.5325 17.203 32.8961 16.9089 32.4859L13.4582 27.0172Z" fill="#F9D90F" stroke="black" stroke-width="0.2"/>
</g>
<defs>
<clipPath id="clip0_1130_1171">
<rect width="49" height="35" rx="8" fill="white"/>
</clipPath>
</defs>
</svg>
