<svg width="49" height="35" viewBox="0 0 49 35" fill="none" xmlns="http://www.w3.org/2000/svg">
<g clip-path="url(#clip0_1130_1234)">
<path d="M49 0H0V35H49V0Z" fill="#223C86"/>
<path d="M44.2102 6.65785L46.1764 3.18193C45.746 2.83704 45.2761 2.54346 44.7783 2.3014L44.2448 3.71253C43.8715 3.53228 43.4803 3.38535 43.0777 3.27174L43.4225 1.78592C42.8308 1.61792 42.2179 1.51215 41.5994 1.46875L41.5088 3.00042C41.1382 2.97459 40.7654 2.97459 40.3949 3.00042L40.3043 1.46875C39.6859 1.51215 39.073 1.61785 38.4813 1.78592L38.8264 3.27174C38.3997 3.39221 37.9857 3.55006 37.5924 3.74529L37.0483 2.33962C36.5791 2.57426 36.1355 2.85503 35.7275 3.18207L37.6924 6.65799H37.717L37.674 6.75578C38.5771 7.27434 39.7631 7.53362 40.9493 7.53362C42.1356 7.53362 43.3216 7.27434 44.2246 6.75578L44.1816 6.65799H44.2102V6.65785Z" fill="#FDD902"/>
<path d="M46.2106 3.12597C45.7849 2.78472 45.3109 2.48624 44.8018 2.23858L44.7476 2.21233L44.7243 2.274C44.3895 3.15964 44.2629 3.49445 44.2152 3.62437C43.8771 3.4647 43.5195 3.3296 43.1505 3.22215L43.4954 1.73619L43.4371 1.71967C42.8464 1.55195 42.2294 1.44457 41.6034 1.40061L41.5448 1.39648L41.4541 2.92836C41.1211 2.90757 40.7836 2.90757 40.4504 2.92836L40.3598 1.39648L40.3012 1.40061C39.675 1.44457 39.0581 1.55195 38.4675 1.71967L38.4092 1.73619L38.7543 3.22215C38.3611 3.33667 37.9811 3.48241 37.6233 3.65615L37.0789 2.25006L37.025 2.27701C36.5455 2.51676 36.0976 2.80243 35.694 3.12597L35.6475 3.16328L37.6745 6.75435L37.7247 6.71403C38.5862 6.02355 39.7317 5.64331 40.9502 5.64331C42.1686 5.64331 43.3141 6.02362 44.1755 6.71403L44.2257 6.75428L46.2572 3.16328L46.2106 3.12597ZM41.0114 4.64833V3.91725C41.7899 3.92362 42.5667 4.05599 43.2902 4.31401L43.0835 5.01072C42.4254 4.77608 41.7193 4.65519 41.0114 4.64833ZM38.8156 5.00904L38.6099 4.31555C39.3346 4.05648 40.1131 3.92355 40.8932 3.91718V4.64805C40.1835 4.65393 39.4755 4.7744 38.8156 5.00904ZM39.5651 3.17399L39.669 3.89793C38.6508 4.08063 37.683 4.48334 36.8851 5.10683L36.5344 4.48558C37.4042 3.80861 38.4575 3.37153 39.5651 3.17399ZM42.2176 3.15264L42.1137 3.87665C41.3462 3.75261 40.5533 3.75296 39.7858 3.87756L39.6819 3.15362C40.5179 3.01761 41.3815 3.01726 42.2176 3.15264ZM38.4972 4.35671L38.7028 5.04992C38.1953 5.24214 37.7191 5.50352 37.2953 5.83343L36.9492 5.2203C37.4145 4.85616 37.9386 4.56825 38.4972 4.35671ZM43.4028 4.35489C43.9625 4.56629 44.4875 4.85448 44.9537 5.2189L44.604 5.83714C44.1803 5.50646 43.7039 5.24452 43.1961 5.05174L43.4028 4.35489ZM42.2306 3.89702L42.3345 3.17308C43.4435 3.37013 44.4982 3.80714 45.3691 4.48467L45.0179 5.10543C44.2188 4.4818 43.2499 4.07923 42.2306 3.89702ZM41.6548 1.5397C42.2331 1.58408 42.8028 1.68306 43.3503 1.8344L43.0349 3.19366C42.5589 3.06388 42.0677 2.97925 41.5719 2.94117L41.6548 1.5397ZM38.5543 1.8344C39.1018 1.68306 39.6716 1.58408 40.2498 1.5397L40.3327 2.94117C39.837 2.97925 39.3459 3.06388 38.87 3.19359L38.5543 1.8344ZM37.0186 2.42793L37.5158 3.71243C37.1464 3.89933 36.7958 4.11913 36.4704 4.37211L35.8085 3.19954C36.1783 2.90834 36.5849 2.64906 37.0186 2.42793ZM37.7074 6.5636L37.3592 5.94683C38.0625 5.39852 38.9143 5.04376 39.8103 4.88227L39.9136 5.60187C39.0888 5.75195 38.3289 6.07997 37.7074 6.5636ZM40.0303 5.58129L39.927 4.8619C40.6016 4.7534 41.2978 4.75375 41.9723 4.86274L41.8692 5.58115C41.5696 5.5332 41.2623 5.50828 40.9502 5.50828C40.6378 5.50828 40.3301 5.53327 40.0303 5.58129ZM44.193 6.56367C43.5713 6.07976 42.811 5.75174 41.986 5.60173L42.0891 4.88318C42.9853 5.04537 43.8369 5.40104 44.5399 5.95047L44.193 6.56367ZM45.4332 4.37127C45.0885 4.10345 44.7156 3.87273 44.3219 3.67897C44.4085 3.45014 44.7211 2.62316 44.8094 2.38943C45.2721 2.61889 45.7044 2.89105 46.096 3.19947L45.4332 4.37127Z" fill="#DA7B19"/>
<path d="M37.8184 6.71121C39.6084 7.66083 42.297 7.66083 44.087 6.71121C42.3027 5.36609 39.6139 5.35769 37.8184 6.71121Z" fill="black"/>
<path d="M40.9519 7.46904C42.0472 7.46904 42.9351 7.12138 42.9351 6.69253C42.9351 6.26367 42.0472 5.91602 40.9519 5.91602C39.8566 5.91602 38.9688 6.26367 38.9688 6.69253C38.9688 7.12138 39.8566 7.46904 40.9519 7.46904Z" fill="#FDD902"/>
<path d="M37.6085 6.81546L33.9915 6.60742C33.9453 7.20578 33.9578 7.81765 34.0233 8.43148L35.3594 8.25389C35.4093 8.71344 35.4936 9.17418 35.6088 9.62939L34.3105 10.0311C34.479 10.7007 34.7053 11.3602 34.9817 11.994L36.1876 11.3179C36.3533 11.6975 36.5397 12.0665 36.7445 12.4203L35.6292 13.2757C35.9712 13.8661 36.3578 14.4198 36.781 14.9215L37.7344 13.8371C38.039 14.1991 38.3656 14.53 38.7102 14.8216L37.9171 16.063C38.3294 16.41 38.7641 16.7088 39.2158 16.949L40.8674 13.2663L40.9507 13.2356C40.8921 12.0825 40.4955 10.7789 39.9025 9.60496C39.3094 8.43099 38.5199 7.38666 37.6754 6.75225L37.6085 6.81546Z" fill="#FDD902"/>
<path d="M33.933 6.60186C33.8873 7.19378 33.8982 7.81223 33.965 8.43992L33.9721 8.50663L34.0305 8.49886C34.869 8.38742 35.186 8.34528 35.3084 8.32771C35.3563 8.74211 35.4328 9.16365 35.5359 9.58246L34.2375 9.98419L34.2541 10.0501C34.4223 10.7186 34.6494 11.383 34.9291 12.0245L34.9553 12.0846L36.1615 11.4084C36.3123 11.7485 36.481 12.0825 36.6633 12.4018L35.5477 13.2575L35.5802 13.3134C35.9265 13.9111 36.3164 14.468 36.7388 14.9688L36.7805 15.0182L37.7339 13.9337C38.0173 14.2657 38.3178 14.5688 38.6283 14.8362L37.835 16.0779L37.8823 16.1178C38.3038 16.4725 38.7441 16.7729 39.1912 17.0107L39.2428 17.0381L40.9505 13.2363L40.8948 13.2068C39.9409 12.6993 39.08 11.7557 38.4707 10.5497C37.8615 9.34383 37.5769 8.01985 37.6694 6.82208L37.6748 6.75222L33.938 6.53711L33.933 6.60186ZM37.6863 10.9866L37.1323 11.3521C36.7479 10.5784 36.4597 9.74346 36.2935 8.89842L36.9249 8.75464C37.076 9.52324 37.3375 10.2825 37.6863 10.9866ZM39.0575 12.9796L38.6349 13.5298C38.0761 12.942 37.5863 12.238 37.1914 11.4691L37.7452 11.1036C38.1044 11.8032 38.5497 12.4437 39.0575 12.9796ZM37.2921 13.1552L37.7888 12.6904C38.4363 13.6068 39.2254 14.3632 40.0968 14.8413L39.8014 15.499C38.8535 14.9767 37.9957 14.1527 37.2921 13.1552ZM35.9498 10.5406L36.5503 10.2813C36.8401 11.1031 37.2368 11.8876 37.715 12.585L37.2183 13.0498C36.6972 12.2903 36.2652 11.4359 35.9498 10.5406ZM38.7223 13.6208L39.1448 13.0707C39.5442 13.4768 39.9805 13.8175 40.4423 14.072L40.1507 14.7212C39.6422 14.4426 39.162 14.0679 38.7223 13.6208ZM36.2682 8.76647C36.1485 8.10679 36.1043 7.44305 36.1474 6.7994L36.7907 6.83636C36.752 7.42114 36.7917 8.02363 36.8995 8.62255L36.2682 8.76647ZM36.5074 10.1556L35.9068 10.4147C35.5016 9.2186 35.3055 7.95615 35.3835 6.75551L36.0295 6.79268C35.9563 7.89525 36.1357 9.05564 36.5074 10.1556ZM35.009 11.9041C34.7534 11.3096 34.5436 10.6962 34.3845 10.0787L35.5723 9.71119C35.712 10.2472 35.8934 10.7757 36.1124 11.2855L35.009 11.9041ZM36.7825 14.8254C36.3941 14.3592 36.0341 13.8448 35.7115 13.2946L36.7321 12.5119C37.0088 12.9835 37.3184 13.4272 37.6547 13.8333L36.7825 14.8254ZM38.0001 16.0486L38.7249 14.9142C39.0512 15.1864 39.393 15.4235 39.7474 15.6191L39.1898 16.8604C38.7842 16.6401 38.3845 16.3673 38.0001 16.0486ZM40.7896 13.2991L40.4964 13.9521C39.7292 13.5301 39.0345 12.8645 38.4642 12.0585L38.9578 11.5964C39.4838 12.3377 40.1123 12.9257 40.7896 13.2991ZM38.8838 11.4911L38.3903 11.9531C37.9707 11.3397 37.6229 10.6504 37.3683 9.92833L37.9642 9.67122C38.0777 9.99168 38.2124 10.3083 38.3685 10.6172C38.5247 10.9264 38.6975 11.2184 38.8838 11.4911ZM37.5468 6.87997C37.491 7.73726 37.6225 8.6537 37.9214 9.54529L37.3253 9.80254C37.0002 8.83451 36.844 7.81377 36.9087 6.84329L37.5468 6.87997ZM35.2654 6.74865C35.2348 7.22374 35.2463 7.70814 35.2964 8.19464C35.0798 8.22348 34.2968 8.32757 34.0755 8.35697C34.018 7.7843 34.008 7.22031 34.046 6.67851L35.2654 6.74865Z" fill="#DA7B19"/>
<path d="M40.8458 13.1165C40.6704 10.87 39.326 8.209 37.7115 6.91211C37.5844 9.35063 38.9223 12.016 40.8458 13.1165Z" fill="black"/>
<path d="M39.8522 9.63574C39.3046 8.55174 38.5972 7.84681 38.2722 8.06124C37.9473 8.27566 38.1278 9.32825 38.6754 10.4122C39.223 11.4962 39.9304 12.2012 40.2554 11.9867C40.5804 11.7723 40.3998 10.7197 39.8522 9.63574Z" fill="#FDD902"/>
<path d="M41.0316 13.2709L42.6825 16.9549C43.1589 16.7014 43.6163 16.383 44.0488 16.0113L43.2462 14.7778C43.5694 14.4985 43.8763 14.1847 44.1637 13.8431L45.1172 14.9273C45.5404 14.4256 45.927 13.8719 46.2691 13.2815L45.1538 12.4259C45.3586 12.0722 45.545 11.7032 45.7107 11.3235L46.9166 11.9998C47.1929 11.366 47.4193 10.7065 47.5877 10.0368L46.2894 9.63546C46.4114 9.15295 46.4988 8.66435 46.5475 8.17736L47.8847 8.34172C47.9416 7.76002 47.9506 7.18049 47.9068 6.61328L44.2904 6.82006L44.2254 6.75293C43.3809 7.38741 42.5914 8.43174 41.9984 9.60571C41.4052 10.7797 41.0087 12.0833 40.9502 13.2363L41.0316 13.2709Z" fill="#FDD902"/>
<path d="M42.7073 17.0164C43.1787 16.7657 43.6419 16.4458 44.0842 16.0656L44.1312 16.0252L44.0961 15.9714C43.5924 15.1971 43.402 14.9045 43.3274 14.7922C43.6174 14.5375 43.8986 14.251 44.1645 13.9396L45.1181 15.0238L45.1597 14.9744C45.5822 14.4736 45.9721 13.9167 46.3184 13.319L46.3508 13.2631L45.2353 12.4074C45.4176 12.0882 45.5863 11.7541 45.7371 11.414L46.9433 12.0903L46.9694 12.0303C47.2492 11.3886 47.4763 10.7243 47.6445 10.0558L47.6611 9.98998L46.3626 9.58853C46.4724 9.14207 46.552 8.69309 46.5992 8.25209L47.9369 8.41638L47.9434 8.34953C48.0014 7.75509 48.0089 7.16905 47.9655 6.60772L47.9605 6.54297L44.2257 6.75367L44.2312 6.82353C44.3237 8.02144 44.0391 9.34528 43.4298 10.5512C42.8206 11.7572 41.9597 12.7008 41.0057 13.2082L40.9502 13.2378L42.6556 17.0439L42.7073 17.0164ZM44.1534 11.1093L44.7074 11.4749C44.3133 12.2422 43.8247 12.9449 43.2674 13.5319L42.8428 12.979C43.3496 12.445 43.7942 11.8065 44.1534 11.1093ZM44.9779 8.75567L45.6063 8.89882C45.4402 9.74575 45.1517 10.5827 44.7664 11.358L44.2126 10.9926C44.5631 10.2871 44.8258 9.52616 44.9779 8.75567ZM45.9936 10.4152L45.3931 10.156C45.7638 9.05695 45.9425 7.89775 45.8691 6.79616L46.5151 6.75976C46.5933 7.95907 46.3978 9.22012 45.9936 10.4152ZM44.6836 13.0511L44.187 12.5862C44.6648 11.8885 45.0609 11.1037 45.3503 10.2817L45.9508 10.5409C45.6358 11.4363 45.2043 12.2912 44.6836 13.0511ZM45.6314 8.7668L45.0033 8.62365C45.1114 8.02529 45.1515 7.42322 45.1134 6.83879L45.751 6.80281C45.7943 7.44548 45.7505 8.10817 45.6314 8.7668ZM43.1801 13.623C42.74 14.0712 42.2592 14.4468 41.7499 14.726L41.4562 14.0708C41.9187 13.8167 42.3555 13.4762 42.7554 13.07L43.1801 13.623ZM44.1131 12.6917L44.6096 13.1565C43.9059 14.1557 43.0473 14.981 42.0984 15.5042L41.8037 14.8462C42.6759 14.3672 43.4654 13.6095 44.1131 12.6917ZM46.1873 13.3004C45.8645 13.8506 45.5046 14.365 45.1163 14.8312L44.2439 13.8395C44.5803 13.4331 44.89 12.9894 45.1668 12.5177L46.1873 13.3004ZM47.5142 10.0845C47.3551 10.702 47.1453 11.3154 46.8898 11.91L45.7863 11.2912C46.0053 10.7815 46.1867 10.2532 46.3264 9.71733L47.5142 10.0845ZM47.8323 8.2677L46.6104 8.11748C46.6534 7.65842 46.6622 7.2016 46.6332 6.75304L47.8526 6.6843C47.8885 7.19593 47.8817 7.72793 47.8323 8.2677ZM44.354 6.88156L44.9955 6.84537C45.0593 7.81571 44.9023 8.83603 44.5766 9.80357L43.9797 9.54597C44.2784 8.65473 44.4098 7.73864 44.354 6.88156ZM43.9369 9.6719L44.5337 9.92936C44.2786 10.6513 43.9302 11.3402 43.5104 11.9532L43.0176 11.492C43.2037 11.2195 43.3762 10.9277 43.5323 10.6188C43.6886 10.3096 43.8234 9.99257 43.9369 9.6719ZM41.1112 13.3007C41.7888 12.9272 42.4174 12.3388 42.9436 11.5972L43.4366 12.0586C42.8656 12.8644 42.1703 13.5295 41.4024 13.9506L41.1112 13.3007ZM42.1524 15.6243C42.5277 15.4171 42.889 15.1635 43.2326 14.8707C43.3628 15.0707 43.8332 15.7936 43.9661 15.9979C43.5609 16.3411 43.1385 16.633 42.7091 16.8664L42.1524 15.6243Z" fill="#DA7B19"/>
<path d="M44.1871 6.91797C42.5725 8.21486 41.2282 10.8759 41.0527 13.1223C42.9642 12.0289 44.3149 9.37196 44.1871 6.91797Z" fill="black"/>
<path d="M42.0465 9.63937C41.4988 10.7234 41.3183 11.7759 41.6433 11.9904C41.9683 12.2048 42.6756 11.4999 43.2233 10.4159C43.7709 9.33188 43.9514 8.2793 43.6264 8.06487C43.3015 7.85044 42.5941 8.55537 42.0465 9.63937Z" fill="#FDD902"/>
<path d="M11.5401 23.3865L13.5063 19.9106C13.076 19.5656 12.606 19.2722 12.1082 19.0301L11.5748 20.4412C11.2015 20.2609 10.8103 20.1139 10.4077 20.0003L10.7525 18.5145C10.1608 18.3465 9.54785 18.2407 8.92941 18.1973L8.83882 19.729C8.46832 19.7032 8.09549 19.7032 7.72499 19.729L7.63446 18.1973C7.01602 18.2407 6.40309 18.3464 5.81142 18.5144L6.15644 20.0003C5.72977 20.1207 5.31584 20.2785 4.9225 20.4738L4.37835 19.0682C3.90918 19.3028 3.46554 19.5835 3.05762 19.9106L5.02246 23.3865H5.04714L5.00414 23.4842C5.90721 24.0028 7.09326 24.2621 8.27942 24.2621C9.46559 24.2621 10.6517 24.0028 11.5547 23.4842L11.5117 23.3865H11.5401Z" fill="#FDD902"/>
<path d="M13.5406 19.8546C13.1149 19.5134 12.6409 19.2148 12.1318 18.9672L12.0777 18.9408L12.0544 19.0025C11.7196 19.8882 11.593 20.223 11.5453 20.3529C11.2072 20.1932 10.8495 20.0581 10.4807 19.9507L10.8254 18.4648L10.7672 18.4483C10.1764 18.2805 9.55953 18.1732 8.93349 18.1291L8.87487 18.125L8.78422 19.657C8.45115 19.6362 8.1136 19.6362 7.78046 19.657L7.68987 18.125L7.63125 18.1291C7.00516 18.1732 6.38818 18.2804 5.79755 18.4482L5.7393 18.4648L6.08438 19.9507C5.6911 20.0652 5.3111 20.211 4.95334 20.3847L4.40901 18.9786L4.35511 19.0055C3.87559 19.2454 3.42779 19.531 3.02409 19.8546L2.97754 19.8919L5.00455 23.4829L5.05477 23.4427C5.91625 22.7522 7.06175 22.3719 8.28026 22.3719C9.4987 22.3719 10.6443 22.7522 11.5056 23.4427L11.5558 23.4829L13.5873 19.8919L13.5406 19.8546ZM8.34145 21.3769V20.6458C9.11993 20.6521 9.89671 20.7845 10.6202 21.0425L10.4135 21.7393C9.7554 21.5046 9.04931 21.3837 8.34145 21.3769ZM6.14551 21.7376L5.93983 21.0442C6.66461 20.7851 7.44303 20.6521 8.22323 20.6458V21.3766C7.51347 21.3824 6.80554 21.5029 6.14551 21.7376ZM6.89515 19.9025L6.99903 20.6265C5.98087 20.8092 5.01312 21.2119 4.2151 21.8354L3.86444 21.2142C4.73419 20.5371 5.78757 20.1001 6.89515 19.9025ZM9.54764 19.8812L9.44376 20.6052C8.67612 20.4811 7.8833 20.4815 7.11583 20.6061L7.01195 19.8821C7.84796 19.7461 8.71152 19.7459 9.54764 19.8812ZM5.82726 21.0852L6.03281 21.7785C5.52536 21.9706 5.04908 22.232 4.62529 22.562L4.27922 21.9488C4.74454 21.5847 5.26866 21.2967 5.82726 21.0852ZM10.7328 21.0834C11.2925 21.2948 11.8175 21.583 12.2837 21.9474L11.934 22.5657C11.5103 22.2349 11.0338 21.973 10.5261 21.7803L10.7328 21.0834ZM9.56057 20.6255L9.66451 19.9016C10.7735 20.0986 11.8283 20.5357 12.6991 21.2132L12.3479 21.8339C11.5489 21.2103 10.5799 20.8078 9.56057 20.6255ZM8.98476 18.2682C9.56302 18.3126 10.1328 18.4116 10.6803 18.563L10.365 19.9222C9.88887 19.7925 9.39776 19.7078 8.90195 19.6698L8.98476 18.2682ZM5.8844 18.5629C6.43186 18.4117 7.0016 18.3126 7.57993 18.2682L7.66274 19.6697C7.16698 19.7078 6.67594 19.7924 6.20009 19.9221L5.8844 18.5629ZM4.34862 19.1565L4.84585 20.441C4.47639 20.6279 4.12585 20.8477 3.80043 21.1006L3.13863 19.9281C3.50833 19.6368 3.91491 19.3776 4.34862 19.1565ZM5.03738 23.2922L4.68923 22.6754C5.39263 22.127 6.24431 21.7723 7.14027 21.6108L7.2436 22.3304C6.41881 22.4805 5.65894 22.8085 5.03738 23.2922ZM7.36034 22.3098L7.25702 21.5905C7.93156 21.4819 8.62785 21.4823 9.30234 21.5913L9.19919 22.3098C8.89962 22.2617 8.59233 22.2369 8.2802 22.2369C7.96776 22.2368 7.6601 22.2618 7.36034 22.3098ZM11.523 23.2922C10.9013 22.8084 10.141 22.4803 9.316 22.3303L9.41914 21.6117C10.3152 21.7739 11.1669 22.1296 11.8699 22.679L11.523 23.2922ZM12.7632 21.0999C12.4185 20.832 12.0456 20.6013 11.6519 20.4076C11.7384 20.1787 12.0511 19.3516 12.1394 19.1179C12.6021 19.3474 13.0344 19.6196 13.426 19.928L12.7632 21.0999Z" fill="#DA7B19"/>
<path d="M5.14844 23.4397C6.93847 24.3893 9.6271 24.3893 11.4171 23.4397C9.6328 22.0946 6.9441 22.0862 5.14844 23.4397Z" fill="black"/>
<path d="M8.28198 24.1975C9.37725 24.1975 10.2651 23.8499 10.2651 23.421C10.2651 22.9922 9.37725 22.6445 8.28198 22.6445C7.18672 22.6445 6.29883 22.9922 6.29883 23.421C6.29883 23.8499 7.18672 24.1975 8.28198 24.1975Z" fill="#FDD902"/>
<path d="M4.93763 23.5459L1.32057 23.3379C1.27439 23.9363 1.28694 24.5481 1.35236 25.1619L2.6884 24.9844C2.73845 25.4439 2.82273 25.9046 2.93788 26.3599L1.63956 26.7615C1.808 27.4311 2.03438 28.0907 2.31074 28.7245L3.51669 28.0483C3.68237 28.428 3.86875 28.7969 4.07357 29.1508L2.95821 30.0062C3.30029 30.5966 3.68684 31.1504 4.11008 31.6519L5.06343 30.5676C5.36803 30.9297 5.69462 31.2604 6.03927 31.5521L5.24614 32.7934C5.65854 33.1405 6.09317 33.4392 6.54495 33.6795L8.19643 29.9969L8.27973 29.966C8.22118 28.813 7.82458 27.5095 7.23156 26.3355C6.63848 25.1615 5.84891 24.1172 5.00451 23.4828L4.93763 23.5459Z" fill="#FDD902"/>
<path d="M1.26212 23.3323C1.21643 23.9242 1.22721 24.5427 1.29416 25.1704L1.30126 25.2371L1.35963 25.2293C2.19815 25.1179 2.51518 25.0758 2.63749 25.0582C2.68551 25.4726 2.76201 25.8941 2.86504 26.3129L1.5666 26.7146L1.5832 26.7805C1.75145 27.4491 1.97856 28.1134 2.25823 28.7549L2.28439 28.8149L3.49058 28.1388C3.64138 28.4788 3.81012 28.8129 3.99246 29.1322L2.87692 29.9879L2.90938 30.0438C3.25569 30.6415 3.64554 31.1984 4.06799 31.6991L4.10964 31.7485L5.06311 30.6641C5.34652 30.996 5.64695 31.2992 5.95749 31.5666L5.16418 32.8083L5.21158 32.8482C5.63298 33.2029 6.07337 33.5033 6.52044 33.741L6.57201 33.7686L8.27972 29.9667L8.22404 29.9372C7.27007 29.4297 6.40921 28.4861 5.79989 27.2801C5.1907 26.0742 4.90607 24.7503 4.99856 23.5525L5.00395 23.4827L1.26708 23.2676L1.26212 23.3323ZM5.01534 27.7171L4.46133 28.0826C4.07687 27.3089 3.78881 26.474 3.62258 25.6288L4.25388 25.4851C4.40511 26.2536 4.66658 27.013 5.01534 27.7171ZM6.3866 29.71L5.96398 30.2603C5.4052 29.6726 4.91526 28.9686 4.52038 28.1996L5.0742 27.8341C5.43349 28.5337 5.87878 29.1742 6.3866 29.71ZM4.6212 29.8857L5.11787 29.4209C5.76541 30.3372 6.55449 31.0937 7.42589 31.5718L7.13042 32.2295C6.18258 31.7071 5.32471 30.8832 4.6212 29.8857ZM3.27884 27.271L3.8794 27.0119C4.16917 27.8336 4.56589 28.6181 5.04407 29.3155L4.54739 29.7803C4.02634 29.0209 3.59428 28.1663 3.27884 27.271ZM6.05138 30.3513L6.47389 29.8012C6.87324 30.2074 7.30946 30.5481 7.77134 30.8026L7.47979 31.4517C6.97124 31.1731 6.49097 30.7985 6.05138 30.3513ZM3.59722 25.4969C3.47754 24.8372 3.43337 24.1736 3.47643 23.5299L4.1198 23.5668C4.08109 24.1516 4.12078 24.7542 4.22858 25.353L3.59722 25.4969ZM3.8364 26.886L3.2359 27.1452C2.83067 25.949 2.63449 24.6865 2.71252 23.486L3.35853 23.5231C3.28539 24.6258 3.4648 25.786 3.8364 26.886ZM2.33804 28.6346C2.08251 28.0401 1.87266 27.4267 1.7136 26.8092L2.9013 26.4417C3.04101 26.9778 3.22243 27.5061 3.44146 28.016L2.33804 28.6346ZM4.11153 31.5559C3.72315 31.0897 3.36324 30.5752 3.04046 30.0251L4.06106 29.2424C4.33779 29.714 4.64747 30.1577 4.98367 30.5639L4.11153 31.5559ZM5.32912 32.7792L6.05389 31.6448C6.38023 31.9171 6.72201 32.1541 7.0764 32.3496L6.51878 33.5909C6.11325 33.3707 5.71359 33.0978 5.32912 32.7792ZM8.11869 30.0296L7.82537 30.6825C7.05815 30.2605 6.36345 29.5949 5.79315 28.7888L6.28683 28.3268C6.81284 29.0681 7.44139 29.6562 8.11869 30.0296ZM6.21278 28.2215L5.71929 28.6835C5.29972 28.0701 4.95188 27.3809 4.69727 26.6588L5.29323 26.4017C5.40673 26.7221 5.54148 27.0388 5.69754 27.3477C5.85379 27.6569 6.02652 27.949 6.21278 28.2215ZM4.87587 23.6104C4.82014 24.4677 4.95164 25.3842 5.25048 26.2758L4.65439 26.533C4.32928 25.5649 4.17303 24.5442 4.23783 23.5738L4.87587 23.6104ZM2.59449 23.4791C2.56387 23.9542 2.57545 24.4386 2.62549 24.9251C2.40878 24.9539 1.62583 25.058 1.40453 25.0874C1.34708 24.5148 1.33709 23.9508 1.37507 23.4089L2.59449 23.4791Z" fill="#DA7B19"/>
<path d="M8.17492 29.847C7.99944 27.6004 6.65513 24.9395 5.04058 23.6426C4.91342 26.0811 6.25143 28.7465 8.17492 29.847Z" fill="black"/>
<path d="M7.18132 26.3662C6.63369 25.2822 5.92631 24.5773 5.60134 24.7917C5.27638 25.0061 5.45688 26.0587 6.00452 27.1427C6.55215 28.2267 7.25953 28.9316 7.5845 28.7172C7.90946 28.5028 7.72895 27.4502 7.18132 26.3662Z" fill="#FDD902"/>
<path d="M8.36161 30.0014L10.0125 33.6853C10.489 33.4319 10.9464 33.1135 11.3788 32.7418L10.5762 31.5083C10.8994 31.229 11.2064 30.9152 11.4938 30.5735L12.4473 31.6576C12.8705 31.1561 13.2571 30.6023 13.5992 30.0119L12.4839 29.1564C12.6887 28.8026 12.8752 28.4336 13.0408 28.054L14.2467 28.7301C14.5231 28.0963 14.7494 27.4369 14.9179 26.7672L13.6194 26.3659C13.7416 25.8834 13.8288 25.3947 13.8776 24.9078L15.2148 25.0722C15.2717 24.4904 15.2807 23.9109 15.2369 23.3438L11.6205 23.5505L11.5556 23.4834C10.711 24.1179 9.92153 25.1622 9.32844 26.3362C8.73536 27.5101 8.33883 28.8138 8.28027 29.9667L8.36161 30.0014Z" fill="#FDD902"/>
<path d="M10.0374 33.7468C10.5087 33.4962 10.972 33.1763 11.4142 32.7962L11.4612 32.7558L11.4261 32.7019C10.9224 31.9275 10.732 31.6349 10.6574 31.5227C10.9475 31.2679 11.2287 30.9815 11.4945 30.6701L12.4482 31.7543L12.4898 31.7049C12.9123 31.2041 13.3022 30.6472 13.6485 30.0495L13.6809 29.9935L12.5654 29.1379C12.7477 28.8186 12.9164 28.4846 13.0673 28.1445L14.2734 28.8207L14.2996 28.7607C14.5793 28.119 14.8065 27.4547 14.9746 26.7862L14.9912 26.7204L13.6926 26.319C13.8025 25.8725 13.8821 25.4236 13.9293 24.9825L15.2669 25.1468L15.2734 25.0801C15.3315 24.4856 15.339 23.8996 15.2956 23.3381L15.2906 23.2734L11.5559 23.4841L11.5613 23.554C11.6538 24.7518 11.3692 26.0757 10.76 27.2817C10.1508 28.4877 9.28986 29.4313 8.33589 29.9386L8.28027 29.9682L9.98572 33.7743L10.0374 33.7468ZM11.4833 27.8398L12.0373 28.2054C11.6433 28.9728 11.1546 29.6753 10.5974 30.2623L10.1727 29.7094C10.6796 29.1754 11.1242 28.5369 11.4833 27.8398ZM12.308 25.4861L12.9363 25.6292C12.7703 26.4761 12.4818 27.313 12.0965 28.0884L11.5426 27.7229C11.893 27.0176 12.1558 26.2566 12.308 25.4861ZM13.3237 27.1456L12.7232 26.8863C13.0939 25.7873 13.2725 24.6281 13.1991 23.5266L13.8451 23.4901C13.9233 24.6895 13.7278 25.9505 13.3237 27.1456ZM12.0136 29.7814L11.517 29.3166C11.9948 28.6189 12.3909 27.834 12.6803 27.0121L13.2808 27.2713C12.9658 28.1668 12.5343 29.0216 12.0136 29.7814ZM12.9614 25.4973L12.3333 25.354C12.4414 24.7557 12.4815 24.1537 12.4434 23.5693L13.081 23.5332C13.1243 24.1759 13.0805 24.8386 12.9614 25.4973ZM10.5101 30.3533C10.07 30.8016 9.58919 31.1772 9.07989 31.4564L8.78626 30.8012C9.24876 30.5471 9.68547 30.2066 10.0854 29.8004L10.5101 30.3533ZM11.4431 29.4221L11.9397 29.887C11.2359 30.8861 10.3774 31.7114 9.42847 32.2346L9.13367 31.5766C10.0058 31.0976 10.7954 30.3399 11.4431 29.4221ZM13.5173 30.0308C13.1945 30.581 12.8346 31.0954 12.4462 31.5616L11.5738 30.5698C11.9102 30.1635 12.2199 29.7197 12.4967 29.2481L13.5173 30.0308ZM14.8442 26.8149C14.6851 27.4324 14.4753 28.0459 14.2197 28.6404L13.1163 28.0216C13.3354 27.5119 13.5167 26.9835 13.6564 26.4477L14.8442 26.8149ZM15.1623 24.9981L13.9404 24.8479C13.9834 24.3888 13.9921 23.932 13.9632 23.4834L15.1827 23.4147C15.2185 23.9263 15.2116 24.4584 15.1623 24.9981ZM11.684 23.612L12.3254 23.5758C12.3892 24.5461 12.2322 25.5664 11.9066 26.534L11.3097 26.2764C11.6084 25.3851 11.7397 24.469 11.684 23.612ZM11.2669 26.4023L11.8637 26.6598C11.6087 27.3817 11.2603 28.0707 10.8404 28.6837L10.3476 28.2224C10.5338 27.9498 10.7062 27.6581 10.8623 27.3492C11.0186 27.04 11.1535 26.723 11.2669 26.4023ZM8.44118 30.0312C9.11872 29.6576 9.74746 29.0693 10.2736 28.3276L10.7666 28.7891C10.1956 29.5949 9.50025 30.2599 8.73242 30.681L8.44118 30.0312ZM9.48237 32.3547C9.85765 32.1475 10.219 31.8939 10.5626 31.6011C10.6927 31.801 11.1631 32.524 11.2961 32.7283C10.8909 33.0715 10.4685 33.3633 10.039 33.5967L9.48237 32.3547Z" fill="#DA7B19"/>
<path d="M11.5171 23.6484C9.90255 24.9453 8.55823 27.6064 8.38281 29.8528C10.2942 28.7593 11.645 26.1024 11.5171 23.6484Z" fill="black"/>
<path d="M9.37654 26.3718C8.82891 27.4558 8.6484 28.5084 8.97337 28.7228C9.29833 28.9372 10.0057 28.2323 10.5533 27.1483C11.101 26.0643 11.2815 25.0117 10.9565 24.7973C10.6316 24.5829 9.92418 25.2878 9.37654 26.3718Z" fill="#FDD902"/>
<path d="M45.5372 30.1838C44.4852 27.4076 41.6054 25.5419 38.981 25.9361C37.2873 26.1904 35.2828 24.8918 34.6039 23.1004C33.552 20.3243 30.6722 18.4584 28.0477 18.8526C26.354 19.107 24.3495 17.8083 23.6706 16.017C22.6188 13.2407 19.7389 11.3749 17.1142 11.7691C15.4207 12.0236 13.4162 10.7249 12.7373 8.93333C11.6853 6.15734 8.80542 4.2917 6.18086 4.6858C4.48717 4.94039 2.48283 3.64175 1.804 1.8501C1.54724 1.1725 1.18096 0.54957 0.736654 0H0V3.05347C1.1281 5.68589 3.90983 7.42434 6.45189 7.04235C8.14558 6.78804 10.15 8.08647 10.8288 9.87805C11.8809 12.6543 14.7609 14.5202 17.3852 14.1258C19.0789 13.8714 21.0832 15.1701 21.7622 16.9616C22.8143 19.7375 25.6941 21.6033 28.3186 21.2092C30.0123 20.9548 32.0166 22.2533 32.6954 24.045C33.7475 26.8209 36.6273 28.6869 39.2519 28.2927C40.9456 28.0382 42.9498 29.3368 43.6287 31.1284C44.3069 32.9179 45.7451 34.3286 47.3846 35.0001H49V33.0144C47.556 32.8004 46.0966 31.6598 45.5372 30.1838Z" fill="white"/>
<path d="M47.6745 25.8806C46.6224 23.1045 43.7426 21.2387 41.1182 21.6329C39.4245 21.8873 37.4201 20.5886 36.7412 18.7972C35.6893 16.0211 32.8094 14.1552 30.1849 14.5494C28.4913 14.8039 26.4868 13.5052 25.8079 11.7138C24.7559 8.9376 21.876 7.07182 19.2514 7.46599C17.5578 7.72044 15.5534 6.4218 14.8745 4.63022C13.8226 1.85402 10.9427 -0.01162 8.3181 0.38255C7.63425 0.48545 6.90016 0.3339 6.22274 0H2.84082C4.19769 1.90848 6.47595 3.05669 8.58913 2.73917C10.2828 2.48486 12.2872 3.78329 12.9661 5.57487C14.0181 8.35107 16.8981 10.2169 19.5225 9.82254C21.2162 9.56816 23.2205 10.8668 23.8995 12.6585C24.9516 15.4343 27.8315 17.3001 30.4559 16.906C32.1496 16.6516 34.1539 17.9502 34.8327 19.7417C35.8848 22.5176 38.7646 24.3837 41.3892 23.9894C43.0828 23.735 45.0872 25.0335 45.766 26.8252C46.3713 28.4222 47.5818 29.718 49.0005 30.4555V27.708C48.4188 27.2194 47.9429 26.5888 47.6745 25.8806Z" fill="white"/>
<path d="M36.8443 30.2384C35.1506 30.4929 33.1461 29.1942 32.4672 27.4027C31.4153 24.6267 28.5355 22.7607 25.911 23.155C24.2173 23.4094 22.2128 22.1107 21.5339 20.3194C20.4821 17.5432 17.6021 15.6774 14.9775 16.0715C13.284 16.326 11.2795 15.0274 10.6006 13.2358C9.54869 10.4596 6.66878 8.59394 4.04422 8.98811C2.57281 9.20938 0.867606 8.25808 0 6.83008V10.0937C1.26977 11.0693 2.83312 11.5675 4.31512 11.3448C6.00881 11.0905 8.01328 12.389 8.69205 14.1806C9.74414 16.9568 12.6241 18.8226 15.2484 18.4283C16.9422 18.1739 18.9465 19.4726 19.6254 21.2641C20.6775 24.04 23.5574 25.9059 26.1818 25.5118C27.8755 25.2574 29.8798 26.5559 30.5586 28.3475C31.6107 31.1234 34.4905 32.9894 37.1152 32.5952C38.6692 32.3617 40.4837 33.4366 41.2968 34.9994H43.639C43.548 34.8337 43.4672 34.6626 43.4004 34.4864C42.3485 31.71 39.4686 29.8442 36.8443 30.2384Z" fill="white"/>
</g>
<defs>
<clipPath id="clip0_1130_1234">
<rect width="49" height="35" rx="8" fill="white"/>
</clipPath>
</defs>
</svg>
