<svg width="49" height="35" viewBox="0 0 49 35" fill="none" xmlns="http://www.w3.org/2000/svg">
<g clip-path="url(#clip0_1130_1623)">
<path d="M49 0H0V35H49V0Z" fill="#1F29A5"/>
<path d="M34.8526 7.80418L33.9453 17.4993H28.5915V28.0046C27.6739 28.5584 26.1828 28.9185 24.4997 28.9185C22.8165 28.9185 21.3257 28.5584 20.408 28.0047L20.4079 17.4994H15.0541L14.1468 7.80418H18.0259V9.51909H22.5516V7.80418H26.4478V9.51909H30.9735V7.80418H34.8526ZM35.9175 6.66992H34.8527H30.9735H30.0208V7.80418V8.38484H27.4006V7.80418V6.66992H26.4479H22.5517H21.5989V7.80418V8.38484H18.9788V7.80418V6.66992H18.026H14.1468H13.082L13.1999 7.92976L14.1073 17.625L14.2017 18.6337H15.0542H19.4552L19.4553 28.0046V28.7014L19.9773 29.0165C21.069 29.6751 22.7173 30.0528 24.4998 30.0528C26.2824 30.0528 27.9308 29.675 29.0225 29.0163L29.5444 28.7013V28.0046V18.6336H33.9455H34.798L34.8924 17.6249L35.7997 7.92976L35.9175 6.66992Z" fill="white"/>
<path d="M49.0003 13.2275C48.8547 13.1591 48.7143 13.084 48.5801 13.0021C47.2344 12.181 44.9609 12.181 43.6152 13.0021C41.9797 13.9999 39.417 14 37.7813 13.0021C36.4356 12.1811 34.162 12.181 32.8163 13.0021C31.1807 14 28.6181 13.9999 26.9825 13.0021C25.6369 12.1811 23.3632 12.181 22.0176 13.0021C20.3819 13.9999 17.8194 14 16.1837 13.0021C14.838 12.1811 12.5643 12.181 11.2188 13.0021C9.58309 14 7.0206 14 5.38482 13.0021C4.0393 12.1811 1.76556 12.181 0.41997 13.0021C0.285833 13.0839 0.145503 13.159 0 13.2274V11.9838C1.63633 10.9946 4.18861 10.9977 5.81942 11.9927C7.16495 12.8136 9.43861 12.8136 10.7843 11.9927C12.4198 10.9947 14.9824 10.9946 16.6182 11.9927C17.9638 12.8135 20.2374 12.8136 21.5831 11.9927C23.2188 10.9948 25.7815 10.9948 27.417 11.9927C28.7627 12.8136 31.0363 12.8136 32.3818 11.9927C34.0174 10.9946 36.58 10.9947 38.2158 11.9927C39.5615 12.8136 41.835 12.8135 43.1807 11.9927C44.8115 10.9976 47.3638 10.9947 49.0001 11.9838L49.0003 13.2275Z" fill="white"/>
</g>
<defs>
<clipPath id="clip0_1130_1623">
<rect width="49" height="35" rx="8" fill="white"/>
</clipPath>
</defs>
</svg>
