<svg width="49" height="35" viewBox="0 0 49 35" fill="none" xmlns="http://www.w3.org/2000/svg">
<g clip-path="url(#clip0_1130_1223)">
<path d="M0 5.98783V11.062H7.66033L0 5.98783ZM6.34822 34.2377H17.6944V26.7223L6.34822 34.2377ZM31.3056 26.7236V34.2377H42.6504L31.3056 26.7236ZM0 23.9374V29.0116L7.66306 23.9374H0ZM42.6531 0.761719H31.3056V8.27707L42.6531 0.761719ZM49 29.0129V23.9374H41.3356L49 29.0129ZM49 11.062V5.98783L41.3383 11.062H49ZM17.6944 0.761719H6.34822L17.6944 8.27707V0.761719Z" fill="#00247D"/>
<path d="M34.2185 23.9378L47.4376 32.6943C48.0832 32.0652 48.5472 31.2898 48.7851 30.4424L38.9647 23.9378H34.2185ZM17.6946 23.9378H14.7805L1.56273 32.693C2.27187 33.3754 3.18109 33.8634 4.20056 34.09L17.6946 25.1519V23.9378ZM31.3057 11.0624H34.2199L47.4376 2.30713C46.7163 1.61479 45.802 1.13036 44.8011 0.910156L31.3057 9.84824V11.0624ZM14.7805 11.0624L1.56273 2.30713C0.917498 2.93671 0.45317 3.7119 0.213867 4.55904L10.0343 11.0624H14.7805Z" fill="#CF1B2B"/>
<path d="M49 21.3623H28.5833V34.2377H31.3056V26.7236L42.6504 34.2377H43.5556C44.2787 34.2378 44.9945 34.1013 45.6611 33.8362C46.3277 33.5711 46.9316 33.1828 47.4374 32.6939L34.2183 23.9374H38.9645L48.7849 30.442C48.9115 30.0081 49 29.5588 49 29.0875V29.0129L41.3356 23.9374H49V21.3623ZM0 21.3623V23.9374H7.66306L0 29.0116V29.0875C0 30.4922 0.597528 31.763 1.56256 32.6926L14.7803 23.9374H17.6944V25.1515L4.20039 34.0883C4.60056 34.1785 5.01433 34.2377 5.44444 34.2377H6.34822L17.6944 26.7223V34.2377H20.4167V21.3623H0ZM49 5.91187C49.0008 4.56251 48.4394 3.26721 47.4374 2.30676L34.2197 11.062H31.3056V9.84787L44.801 0.909786C44.3933 0.815187 43.9753 0.765502 43.5556 0.761719H42.6531L31.3056 8.27708V0.761719H28.5833V13.6371H49V11.062H41.3383L49 5.98783V5.91187ZM17.6944 0.761719V8.27708L6.34822 0.761719H5.44444C4.72118 0.761421 4.00516 0.897958 3.3385 1.1633C2.67185 1.42863 2.06802 1.81741 1.56256 2.30676L14.7803 11.062H10.0341L0.213694 4.55867C0.0786453 4.99863 0.00676937 5.45378 0 5.91187L0 5.98783L7.66033 11.062H0V13.6371H20.4167V0.761719H17.6944Z" fill="#EEEEEE"/>
<path d="M28.5833 13.6371V0.761719H20.4167V13.6371H0V21.3623H20.4167V34.2377H28.5833V21.3623H49V13.6371H28.5833Z" fill="#CF1B2B"/>
</g>
<defs>
<clipPath id="clip0_1130_1223">
<rect width="49" height="35" fill="white"/>
</clipPath>
</defs>
</svg>
