<svg width="271" height="310" viewBox="0 0 271 310" fill="none" xmlns="http://www.w3.org/2000/svg">
<path d="M267.5 90.7264V221.49C267.5 229.381 263.178 236.638 256.239 240.395L146.196 299.997C139.828 303.446 132.153 303.458 125.775 300.029L14.8189 240.375C7.84815 236.627 3.5 229.352 3.5 221.438V90.7795C3.5 82.9958 7.70695 75.82 14.499 72.0183L125.456 9.91391C132.001 6.25026 139.983 6.26288 146.517 9.94723L256.56 71.9986C263.319 75.8098 267.5 82.9671 267.5 90.7264Z" stroke="#47AFFA" stroke-width="7"/>
<circle cx="90.4584" cy="159.722" r="37.7729" stroke="#47AFFA" stroke-width="4"/>
<path fill-rule="evenodd" clip-rule="evenodd" d="M117.993 159.723C117.993 174.93 105.666 187.258 90.4584 187.258C75.2512 187.258 62.9233 174.93 62.9233 159.723C62.9233 144.515 75.2512 132.188 90.4584 132.188C105.666 132.188 117.993 144.515 117.993 159.723ZM76.3849 170.735C76.3849 167.694 78.8505 165.228 81.8919 165.228C84.9334 165.228 87.3989 167.694 87.3989 170.735C87.3989 173.777 84.9334 176.242 81.8919 176.242C78.8505 176.242 76.3849 173.777 76.3849 170.735ZM95.9654 144.424C91.9102 144.424 88.6227 147.711 88.6227 151.767C88.6227 155.822 91.9102 159.109 95.9654 159.109C100.021 159.109 103.308 155.822 103.308 151.767C103.308 147.711 100.021 144.424 95.9654 144.424Z" fill="#47AFFA"/>
<circle cx="178.57" cy="159.722" r="37.7729" stroke="#47AFFA" stroke-width="4"/>
<path fill-rule="evenodd" clip-rule="evenodd" d="M206.105 159.723C206.105 174.93 193.777 187.258 178.57 187.258C163.363 187.258 151.035 174.93 151.035 159.723C151.035 144.515 163.363 132.188 178.57 132.188C193.777 132.188 206.105 144.515 206.105 159.723ZM164.497 170.735C164.497 167.694 166.962 165.228 170.004 165.228C173.045 165.228 175.511 167.694 175.511 170.735C175.511 173.777 173.045 176.242 170.004 176.242C166.962 176.242 164.497 173.777 164.497 170.735ZM184.077 144.424C180.022 144.424 176.735 147.711 176.735 151.767C176.735 155.822 180.022 159.109 184.077 159.109C188.132 159.109 191.42 155.822 191.42 151.767C191.42 147.711 188.132 144.424 184.077 144.424Z" fill="#47AFFA"/>
<path d="M133.902 215.615L147.68 191.752H120.125L133.902 215.615Z" fill="#47AFFA"/>
<mask id="path-7-inside-1_1078_142" fill="white">
<path fill-rule="evenodd" clip-rule="evenodd" d="M185.896 89.2928L223.084 71L224.301 128.984C229.907 140.287 233.029 152.837 233.029 166.052C233.029 215.729 188.922 256 134.514 256C80.1064 256 36 215.729 36 166.052C36 152.953 39.0669 140.507 44.5808 129.282L45.802 71.0956L84.2929 88.6537C98.9988 80.6817 116.171 76.1043 134.514 76.1043C153.342 76.1043 170.937 80.9268 185.896 89.2928Z"/>
</mask>
<path d="M223.084 71L228.083 70.8951L227.918 63.0498L220.877 66.5134L223.084 71ZM185.896 89.2928L183.456 93.6568L185.748 94.9383L188.103 93.7794L185.896 89.2928ZM224.301 128.984L219.302 129.089L219.325 130.205L219.822 131.206L224.301 128.984ZM44.5808 129.282L49.0686 131.486L49.5564 130.493L49.5797 129.387L44.5808 129.282ZM45.802 71.0956L47.8771 66.5465L40.9626 63.3924L40.8031 70.9907L45.802 71.0956ZM84.2929 88.6537L82.2178 93.2027L84.485 94.237L86.6758 93.0494L84.2929 88.6537ZM220.877 66.5134L183.69 84.8063L188.103 93.7794L225.291 75.4866L220.877 66.5134ZM229.3 128.879L228.083 70.8951L218.085 71.1049L219.302 129.089L229.3 128.879ZM238.029 166.052C238.029 152.037 234.716 138.73 228.78 126.762L219.822 131.206C225.098 141.844 228.029 153.636 228.029 166.052H238.029ZM134.514 261C191.246 261 238.029 218.909 238.029 166.052H228.029C228.029 212.549 186.599 251 134.514 251V261ZM31 166.052C31 218.909 77.7828 261 134.514 261V251C82.43 251 41 212.549 41 166.052H31ZM40.0929 127.078C34.2546 138.964 31 152.161 31 166.052H41C41 153.745 43.8792 142.051 49.0686 131.486L40.0929 127.078ZM40.8031 70.9907L39.5819 129.177L49.5797 129.387L50.8009 71.2005L40.8031 70.9907ZM86.368 84.1046L47.8771 66.5465L43.7269 75.6447L82.2178 93.2027L86.368 84.1046ZM134.514 71.1043C115.336 71.1043 97.3446 75.891 81.91 84.258L86.6758 93.0494C100.653 85.4724 117.007 81.1043 134.514 81.1043V71.1043ZM188.337 84.9289C172.634 76.1474 154.2 71.1043 134.514 71.1043V81.1043C152.485 81.1043 169.239 85.7063 183.456 93.6568L188.337 84.9289Z" fill="#47AFFA" mask="url(#path-7-inside-1_1078_142)"/>
</svg>
