<svg width="49" height="35" viewBox="0 0 49 35" fill="none" xmlns="http://www.w3.org/2000/svg">
<g clip-path="url(#clip0_1130_1492)">
<path d="M6.20703 0H49.0004V35H6.20703L12.7404 26.0556L6.20703 17.5L12.7404 8.94444L6.20703 0Z" fill="#DC241F"/>
<path d="M6.20667 0H0V35H6.20667L12.74 26.0556L6.20667 17.5L12.74 8.94444L6.20667 0Z" fill="#003798"/>
<path d="M9.29043 35L16.6404 26.25L9.45376 17.5L16.6596 8.75056L9.29043 0L1.95959 0.000558056L9.18961 8.74944L1.94043 17.5L9.29043 26.25L1.94043 35H9.29043Z" fill="#FFE500"/>
<path d="M25.0721 25.0953C25.2227 25.0689 25.4094 25.025 25.487 24.9976C25.6899 24.926 26.0179 24.7827 26.0179 24.7657C26.0179 24.7543 25.6379 24.4832 25.5828 24.4553C25.5757 24.4516 25.5221 24.5005 25.4637 24.5639C25.2823 24.761 25.0264 24.916 24.7866 24.9741C24.6389 25.0098 24.3832 25.0146 24.2557 24.9839C23.9979 24.9219 23.7402 24.7728 23.5507 24.5761C23.5006 24.5242 23.4506 24.4739 23.4395 24.4645C23.4264 24.4533 23.3614 24.4874 23.2543 24.5615C23.1635 24.6243 23.0603 24.6956 23.025 24.7199C22.9667 24.76 22.9636 24.7659 22.9922 24.7841C23.0408 24.8151 23.2518 24.9024 23.4626 24.9788C23.9149 25.1428 24.5409 25.1881 25.0721 25.0953Z" fill="black"/>
<path d="M20.172 14.8749C20.1392 14.3904 19.8486 14.2521 19.1862 14.0343C18.7903 13.904 18.3878 13.8015 17.8383 13.8158C17.7553 13.8179 17.5469 13.8178 17.4939 13.9341C17.3935 14.1544 17.6333 14.8586 18.212 15.5555C18.3905 15.7704 18.6915 15.9431 18.993 16.0254C19.2085 16.0842 19.4672 16.2845 19.4956 16.4855C19.8101 16.0429 20.2143 15.4988 20.172 14.8749Z" fill="#FFE500" stroke="#9F2D20" stroke-width="0.2"/>
<path d="M28.8283 14.8749C28.8611 14.3904 29.1517 14.2521 29.814 14.0343C30.21 13.904 30.6125 13.8015 31.1619 13.8158C31.245 13.8179 31.4534 13.8178 31.5064 13.9341C31.6067 14.1544 31.367 14.8586 30.7883 15.5555C30.6098 15.7704 30.3088 15.9431 30.0073 16.0254C29.7918 16.0842 29.5331 16.2845 29.5047 16.4855C29.1901 16.0429 28.786 15.4988 28.8283 14.8749Z" fill="#FFE500" stroke="#9F2D20" stroke-width="0.2"/>
<path d="M17.5205 13.9434C18.2392 14.1378 19.0705 14.505 19.3555 14.9724C19.4701 15.1602 19.3983 15.9232 19.4319 16.2793C19.4373 16.337 19.465 16.3982 19.4817 16.4307" fill="#FFE500"/>
<path d="M17.5205 13.9434C18.2392 14.1378 19.0705 14.505 19.3555 14.9724C19.4701 15.1602 19.3983 15.9232 19.4319 16.2793C19.4373 16.337 19.465 16.3982 19.4817 16.4307" stroke="#9F2D20" stroke-width="0.2" stroke-linecap="round"/>
<path d="M31.4807 13.9434C30.762 14.1378 29.9307 14.505 29.6456 14.9724C29.5311 15.1602 29.6029 15.9232 29.5693 16.2793C29.5639 16.337 29.5362 16.3982 29.5195 16.4307" fill="#FFE500"/>
<path d="M31.4807 13.9434C30.762 14.1378 29.9307 14.505 29.6456 14.9724C29.5311 15.1602 29.6029 15.9232 29.5693 16.2793C29.5639 16.337 29.5362 16.3982 29.5195 16.4307" stroke="#9F2D20" stroke-width="0.2" stroke-linecap="round"/>
<path d="M25.0636 11.474C25.5205 11.4874 25.8257 11.476 26.383 11.426C26.8913 11.3804 27.2471 11.347 27.5422 11.344C27.9008 11.3403 28.1622 11.3808 28.39 11.4787C28.5981 11.5681 28.7841 11.6727 28.8204 11.8436C28.9909 12.6477 29.1501 13.6184 29.1474 14.4935C29.147 14.6049 29.0708 14.8885 28.9791 15.0157C28.9707 15.0401 28.9389 15.0817 28.9504 15.0958C28.9633 15.1116 28.9855 15.0208 29.0125 14.9754C29.0382 14.9322 29.0398 14.8905 29.0744 14.8505C29.1427 14.942 29.2124 15.12 29.2843 15.3351C29.5394 16.098 29.5914 16.9985 29.3923 18.061C29.3433 18.3229 29.3058 18.4614 29.183 18.8017C28.9905 19.3355 28.7207 19.9569 28.3144 20.5938C28.1126 20.9103 27.7896 21.551 27.6336 21.893C27.5407 22.0965 27.4334 22.3426 27.3732 22.5546C27.3152 22.7593 26.8469 23.8243 26.7758 23.9059C26.7391 23.9942 26.3289 25.2381 24.4996 25.2381C22.6703 25.2381 22.2601 23.9942 22.2234 23.9059C22.1523 23.8243 21.6841 22.7593 21.626 22.5546C21.5658 22.3426 21.4585 22.0965 21.3657 21.893C21.2097 21.551 20.8866 20.9103 20.6848 20.5938C20.2786 19.9569 20.0087 19.3355 19.8162 18.8017C19.6934 18.4614 19.656 18.3229 19.6069 18.061C19.4079 16.9985 19.4598 16.098 19.7149 15.3351C19.7868 15.12 19.8565 14.942 19.9248 14.8505C19.9594 14.8905 19.961 14.9322 19.9867 14.9755C20.0137 15.0208 20.0359 15.1116 20.0488 15.0958C20.0604 15.0817 20.0285 15.0401 20.0201 15.0157C19.9284 14.8885 19.8522 14.6049 19.8519 14.4935C19.8492 13.6184 20.0083 12.6477 20.1788 11.8436C20.2151 11.6727 20.4011 11.5681 20.6092 11.4787C20.837 11.3808 21.0984 11.3403 21.4571 11.344C21.7521 11.347 22.1079 11.3804 22.6162 11.426C23.1735 11.476 23.4787 11.4874 23.9356 11.474C24.2289 11.4654 24.3699 11.4715 24.4996 11.4715C24.6293 11.4715 24.7703 11.4654 25.0636 11.474Z" fill="#FFE500" stroke="#9F2D20" stroke-width="0.2"/>
<path d="M25.3468 15.3887C25.3278 15.3522 25.35 15.333 25.4746 15.2776C25.646 15.2015 25.9041 15.0354 26.0857 14.8845C26.5738 14.4787 26.7374 14.3581 27.0606 14.1657C27.2206 14.0704 27.3453 14.0336 27.3453 14.0815C27.3453 14.0914 27.2608 14.1479 27.1574 14.2071C26.9335 14.3353 26.5294 14.6233 26.3043 14.8151C25.9347 15.13 25.8388 15.2067 25.7441 15.263C25.5736 15.3643 25.3679 15.4293 25.3468 15.3887Z" fill="black"/>
<path d="M23.6764 23.2181C23.7008 23.15 23.7586 23.1111 23.7286 23.0867L23.6071 22.9878L23.1396 22.5231C23.1 22.4836 23.0972 22.4802 23.0445 22.3912C23.0445 22.3912 22.9904 22.2105 22.9943 22.2449C22.9975 22.2729 22.9936 22.1311 22.9776 22.1576C22.9062 22.2622 22.8999 22.3139 22.8667 22.4003C22.8183 22.5259 22.7964 22.6766 22.8257 22.8498C22.8552 23.0244 23.0307 23.1992 23.0975 23.2966" stroke="#9F2D20" stroke-width="0.2" stroke-linecap="round"/>
<path d="M28.639 14.7747C28.795 14.697 28.9578 14.5783 29.2618 14.321C29.5275 14.096 29.7401 13.8752 30.008 13.5456C30.4056 13.0568 30.5487 12.8312 30.7326 12.4028C30.7908 12.2673 30.8525 12.1164 30.8697 12.0675C30.8868 12.0186 30.9148 11.9413 30.9318 11.8958C31.0125 11.6795 31.2082 10.9219 31.1833 10.9219C31.1784 10.9219 31.1324 10.9522 31.081 10.9892C30.9627 11.0745 30.6837 11.2389 30.5645 11.2934C30.4059 11.3661 29.7131 11.6049 29.3212 11.7219C29.0145 11.8136 28.6706 11.9493 28.4995 12.0463C28.2521 12.1864 28.1337 12.3436 27.9905 12.7222C27.8318 13.1419 27.7698 13.4525 27.7793 13.7813C27.785 13.9825 27.7889 14.0022 27.8543 14.1646C27.9755 14.465 28.1758 14.7807 28.2789 14.8334C28.3443 14.8668 28.5076 14.8402 28.639 14.7747Z" stroke="#D45500" stroke-width="0.2"/>
<path d="M27.8604 13.8984C27.8604 13.8585 27.8785 13.845 27.9972 13.7963C28.2562 13.6901 28.5627 13.5266 28.7713 13.3832C29.2872 13.0289 29.5824 12.8068 29.8066 12.6045C29.9232 12.4993 29.9812 12.4695 30.028 12.4909C30.0527 12.5021 30.0524 12.5069 30.0248 12.5432C29.9725 12.612 29.7576 12.8002 29.5728 12.9391C28.8159 13.508 28.411 13.7589 28.015 13.9045C27.8767 13.9553 27.8604 13.9547 27.8604 13.8984Z" fill="black"/>
<path d="M24.1403 21.8758C23.977 21.8174 23.8389 21.7301 23.6667 21.5852C23.6119 21.5392 23.4933 21.4473 23.4543 21.4286C23.2228 21.3173 22.9752 21.2618 22.7356 21.3508C22.4384 21.4612 22.2865 21.6655 22.1626 22.2016C22.1225 22.3753 22.0986 22.5837 22.0986 22.9452C22.0986 23.2369 22.1476 23.7036 22.2293 23.9174C22.3637 24.2693 22.5419 24.4587 22.7356 24.6563C22.85 24.773 22.9816 24.6702 23.0296 24.6369C23.4216 24.3647 24.0096 23.9758 24.4996 23.9758C24.9896 23.9758 25.594 24.3647 25.986 24.6369C26.034 24.6702 26.1656 24.773 26.28 24.6563C26.4737 24.4587 26.6519 24.2693 26.7863 23.9174C26.868 23.7036 26.917 23.2369 26.917 22.9452C26.917 22.5837 26.8931 22.3753 26.853 22.2016C26.7291 21.6655 26.5772 21.4612 26.28 21.3508C26.0404 21.2618 25.7928 21.3173 25.5613 21.4286C25.5223 21.4473 25.4037 21.5392 25.3489 21.5852C25.1767 21.7301 25.0386 21.8174 24.8753 21.8758C24.7813 21.9094 24.6466 21.9341 24.4996 21.9341C24.3526 21.9341 24.2343 21.9094 24.1403 21.8758Z" stroke="#9F2D20" stroke-width="0.2"/>
<path d="M25.3115 23.071C25.4267 23.5894 25.157 24.1178 24.7093 24.2511C24.2616 24.3844 23.8054 24.0721 23.6903 23.5537C23.6544 23.3923 23.6552 23.2229 23.6923 23.0619L23.2232 22.6289C23.0652 23.052 23.0636 23.5345 23.2188 23.959C23.5249 24.7962 24.3438 25.1798 25.0478 24.8158C25.7518 24.4518 26.0744 23.478 25.7683 22.6408L25.3115 23.071Z" fill="#FFE500" stroke="#9F2D20" stroke-width="0.2" stroke-linecap="round" stroke-linejoin="round"/>
<path d="M25.3224 23.22C25.298 23.1519 25.2401 23.113 25.2702 23.0886L25.3916 22.9898L25.8591 22.525C25.8988 22.4856 25.9015 22.4821 25.9543 22.3931C25.9543 22.3931 26.0084 22.2125 26.0045 22.2469C26.0013 22.2749 26.0052 22.133 26.0211 22.1596C26.0926 22.2642 26.0988 22.3158 26.1321 22.4022C26.1804 22.5278 26.2023 22.6785 26.1731 22.8518C26.1436 23.0263 25.9681 23.2012 25.9013 23.2985" stroke="#9F2D20" stroke-width="0.2" stroke-linecap="round"/>
<path d="M22.4258 17.8691C22.5053 18.0704 22.5316 18.2578 22.5728 18.608C22.627 19.0688 22.7854 19.6911 22.9811 20.2608C23.0924 20.5848 23.2751 20.9414 23.5038 21.3303C23.5453 21.4009 23.6344 21.5636 23.7324 21.6414" stroke="#9F2D20" stroke-width="0.2"/>
<path d="M22.4257 17.8696C22.3441 17.8113 22.2085 17.8843 22.1644 17.9085C21.875 18.0671 21.5141 18.0626 21.1517 17.9085C20.9231 17.8113 20.7717 17.6117 20.6617 17.2085C20.5583 16.8292 20.5964 16.4696 20.6617 16.4502C20.7271 16.4307 20.8838 16.4519 21.0537 16.5279C21.1623 16.5766 21.1973 16.6142 21.2987 16.7418C21.4699 16.9573 21.5539 17.005 21.8377 17.1696C22.1064 17.3253 22.1807 17.4224 22.2624 17.5585C22.3167 17.649 22.4094 17.7816 22.4257 17.8696Z" stroke="#9F2D20" stroke-width="0.2"/>
<path d="M21.2007 16.625C21.0864 16.7028 21.0507 16.8055 21.0374 16.8972C20.9557 17.4611 21.4457 17.7139 21.6907 17.5972C21.8431 17.5246 21.9357 17.4222 21.9847 17.2667" stroke="#9F2D20" stroke-width="0.2"/>
<path d="M26.582 17.8691C26.5026 18.0704 26.4762 18.2578 26.435 18.608C26.3808 19.0688 26.2224 19.6911 26.0267 20.2608C25.9154 20.5848 25.7327 20.9414 25.504 21.3303C25.4625 21.4009 25.3734 21.5636 25.2754 21.6414" stroke="#9F2D20" stroke-width="0.2"/>
<path d="M26.5821 17.8696C26.6638 17.8113 26.7993 17.8843 26.8434 17.9085C27.1328 18.0671 27.4937 18.0626 27.8561 17.9085C28.0848 17.8113 28.2362 17.6117 28.3461 17.2085C28.4495 16.8292 28.4114 16.4696 28.3461 16.4502C28.2808 16.4307 28.124 16.4519 27.9541 16.5279C27.8455 16.5766 27.8105 16.6142 27.7091 16.7418C27.5379 16.9573 27.454 17.005 27.1701 17.1696C26.9015 17.3253 26.8271 17.4224 26.7454 17.5585C26.6911 17.649 26.5984 17.7816 26.5821 17.8696Z" stroke="#9F2D20" stroke-width="0.2"/>
<path d="M27.8071 16.625C27.9214 16.7028 27.9571 16.8055 27.9704 16.8972C28.0521 17.4611 27.5621 17.7139 27.3171 17.5972C27.1647 17.5246 27.0721 17.4222 27.0231 17.2667" stroke="#9F2D20" stroke-width="0.2"/>
<path d="M23.4123 15.3401C23.2492 15.2731 23.1213 15.1815 22.7497 14.8653C22.4351 14.5976 21.9154 14.2298 21.75 14.1579C21.6423 14.1111 21.6225 14.0625 21.7111 14.0625C21.8038 14.0625 22.2588 14.3517 22.5734 14.6105C23.0991 15.0431 23.319 15.1954 23.5588 15.2929C23.624 15.3194 23.6458 15.3379 23.6458 15.3669C23.6458 15.4221 23.5989 15.4167 23.4123 15.3401Z" fill="#9F2D20"/>
<path d="M25.588 15.3401C25.7511 15.2731 25.8789 15.1815 26.2505 14.8653C26.5652 14.5976 27.0849 14.2298 27.2503 14.1579C27.358 14.1111 27.3778 14.0625 27.2892 14.0625C27.1965 14.0625 26.7415 14.3517 26.4269 14.6105C25.9012 15.0431 25.6813 15.1954 25.4415 15.2929C25.3763 15.3194 25.3545 15.3379 25.3545 15.3669C25.3545 15.4221 25.4013 15.4167 25.588 15.3401Z" fill="#9F2D20"/>
<path d="M20.8011 14.812C20.9951 14.6296 21.1464 14.2818 21.2379 14.0253C21.2677 13.9416 21.2855 13.8428 21.2662 13.6895C21.2093 13.2371 21.1711 12.969 21.0038 12.5829C20.8611 12.2538 20.6709 12.0353 20.333 11.912C20.2949 11.8981 20.2473 11.8765 20.1759 11.8509C19.9827 11.7819 19.6705 11.6799 19.5062 11.6263C19.1532 11.5112 18.7615 11.3974 18.5684 11.3096C18.226 11.154 17.9727 10.965 17.8536 10.8842C17.8283 10.8627 17.7983 10.8541 17.7555 10.8112C17.6395 10.6947 17.8979 11.587 18.0698 12.0579C18.2475 12.5448 18.5078 13.099 19.1095 13.7846C19.4181 14.1362 19.5047 14.2244 19.8719 14.5168C20.1848 14.7659 20.4526 14.9238 20.6129 14.9153C20.7126 14.91 20.7124 14.8955 20.8011 14.812Z" fill="#FFE500" stroke="#9F2D20" stroke-width="0.2"/>
<path d="M28.1978 14.812C28.0038 14.6296 27.8525 14.2818 27.761 14.0253C27.7312 13.9416 27.7133 13.8428 27.7327 13.6895C27.7896 13.2371 27.8278 12.969 27.9951 12.5829C28.1378 12.2538 28.328 12.0353 28.6659 11.912C28.704 11.8981 28.7516 11.8765 28.823 11.8509C29.0162 11.7819 29.3284 11.6799 29.4927 11.6263C29.8457 11.5112 30.2374 11.3974 30.4305 11.3096C30.7729 11.154 31.0262 10.965 31.1453 10.8842C31.1706 10.8627 31.2006 10.8541 31.2433 10.8112C31.3594 10.6947 31.101 11.587 30.9291 12.0579C30.7514 12.5448 30.4911 13.099 29.8894 13.7846C29.5808 14.1362 29.4942 14.2244 29.127 14.5168C28.8141 14.7659 28.5463 14.9238 28.386 14.9153C28.2863 14.91 28.2865 14.8955 28.1978 14.812Z" fill="#FFE500" stroke="#9F2D20" stroke-width="0.2"/>
<path d="M21.0071 13.916C20.7965 13.8457 20.4219 13.6476 20.1399 13.4574C20.069 13.4097 19.9794 13.3496 19.9408 13.3239C19.9021 13.2982 19.8108 13.2319 19.7377 13.1766C19.6647 13.1212 19.5356 13.0247 19.4508 12.9621C19.1652 12.7513 18.9382 12.5406 18.9572 12.5039C18.9826 12.4549 19.1048 12.5125 19.212 12.6241C19.2716 12.6862 19.6282 12.968 19.785 13.0771C19.8384 13.1142 19.9877 13.2185 20.1169 13.3088C20.4114 13.5149 20.571 13.6056 20.8729 13.7387C21.0044 13.7967 21.1192 13.8528 21.1281 13.8633C21.1489 13.888 21.1309 13.945 21.1031 13.9427C21.0914 13.9417 21.0482 13.9297 21.0071 13.916Z" fill="#9F2D20"/>
<path d="M27.9933 13.916C28.2039 13.8457 28.5785 13.6476 28.8605 13.4574C28.9314 13.4097 29.021 13.3496 29.0596 13.3239C29.0983 13.2982 29.1896 13.2319 29.2627 13.1766C29.3357 13.1212 29.4648 13.0247 29.5496 12.9621C29.8352 12.7513 30.0622 12.5406 30.0432 12.5039C30.0178 12.4549 29.8956 12.5125 29.7884 12.6241C29.7288 12.6862 29.3722 12.968 29.2154 13.0771C29.162 13.1142 29.0127 13.2185 28.8835 13.3088C28.589 13.5149 28.4294 13.6056 28.1275 13.7387C27.996 13.7967 27.8812 13.8528 27.8723 13.8633C27.8515 13.888 27.8695 13.945 27.8973 13.9427C27.909 13.9417 27.9522 13.9297 27.9933 13.916Z" fill="#9F2D20"/>
</g>
<defs>
<clipPath id="clip0_1130_1492">
<rect width="49" height="35" rx="8" fill="white"/>
</clipPath>
</defs>
</svg>
