<svg width="49" height="35" viewBox="0 0 49 35" fill="none" xmlns="http://www.w3.org/2000/svg">
<g clip-path="url(#clip0_1130_1372)">
<path d="M49 0H0V35H49V0Z" fill="#00B140"/>
<path d="M49 0H0V17.5H49V0Z" fill="white"/>
<path d="M15.1085 8.29883C13.5172 8.58592 9.48454 9.03696 7.91113 8.72945L8.21859 9.61115C10.8226 9.32406 13.3182 10.3288 15.633 9.28307L15.1085 8.29883Z" fill="#C8102E" stroke="black" stroke-width="0.2"/>
<path d="M8.94178 10.4526C7.94706 10.1041 6.30147 8.07407 6.03027 6.84375C6.80783 7.4793 8.67047 8.29957 9.33959 8.2176C9.12254 8.40215 8.58 8.89418 8.16408 8.95574C8.36313 9.40694 8.74276 9.98097 8.94178 10.4526Z" fill="#C8102E" stroke="black" stroke-width="0.2"/>
<path d="M12.1416 9.83774C12.4311 10.3094 13.9501 10.1146 14.7185 9.54054L14.5106 9.14062L14.3569 9.47898L14.1128 9.1612L14.0496 9.66349L13.6246 9.29443L13.5521 9.73535L13.2809 9.34571L13.1816 9.82763L12.7836 9.4584L12.63 9.96089C12.5099 9.79138 12.4428 9.57769 12.44 9.35602C12.2863 9.42769 12.1597 9.66349 12.1416 9.83774Z" fill="#C8102E" stroke="black" stroke-width="0.2"/>
<path d="M12.2686 8.3094C12.2686 8.43235 12.3951 8.79131 12.6303 8.8937C12.6394 8.74002 12.4765 8.3811 12.576 8.22743L12.784 8.45293L12.8474 8.0223L13.1276 8.25811L13.1547 7.75581L13.444 7.98132V7.42773C12.9738 7.47883 12.3951 8.12485 12.2686 8.3094Z" fill="#C8102E" stroke="black" stroke-width="0.2"/>
<path d="M41.6146 13.8974C41.4926 13.5694 41.1128 13.1696 40.7782 12.9235C40.9088 12.5594 41.1125 11.9833 41.3159 11.3868C40.8096 11.5099 39.7566 11.6009 39.1416 11.5189C40.2989 10.2066 42.7222 7.49985 43.5179 6.26953C43.2286 7.95092 43.4456 11.7239 44.0243 13.0362C43.4094 12.7491 42.6987 12.1547 42.3009 11.4985C42.0663 12.4405 41.7785 13.4669 41.6192 13.8871" fill="#C8102E"/>
<path d="M41.6146 13.8974C41.4926 13.5694 41.1128 13.1696 40.7782 12.9235C40.9088 12.5594 41.1125 11.9833 41.3159 11.3868C40.8096 11.5099 39.7566 11.6009 39.1416 11.5189C40.2989 10.2066 42.7222 7.49985 43.5179 6.26953C43.2286 7.95092 43.4456 11.7239 44.0243 13.0362C43.4094 12.7491 42.6987 12.1547 42.3009 11.4985C42.0663 12.4405 41.7785 13.4669 41.6192 13.8871" stroke="black" stroke-width="0.2"/>
<path d="M19.0321 6.69965C19.1044 7.13031 19.1224 7.45836 19.3938 7.58135C19.665 7.70447 20.2618 7.95042 20.6416 8.68868C20.1895 8.54515 19.5565 8.34006 19.5022 8.83225C19.4506 9.30063 19.6318 9.28681 19.9363 9.36526C20.3341 9.4678 20.7139 10.0214 20.732 10.7597C20.4064 10.5342 19.9543 10.3496 19.665 10.3496C19.3756 10.3496 19.2942 10.4111 19.222 10.8211C19.1026 11.4975 19.3215 11.5388 19.5927 11.5798C19.864 11.6208 20.4427 11.9284 20.4788 13.0562C20.1713 12.7486 19.5547 12.5772 19.1767 12.5026C18.9688 12.4617 18.9326 12.5846 18.9056 13.0152C18.8783 13.4459 18.9236 13.5894 19.2852 13.7124C19.647 13.8355 20.0629 14.143 20.1713 14.7992C19.8277 14.6146 19.2852 14.6762 19.1224 14.7582C18.9597 14.8402 18.8715 15.2984 19.2152 16.1801C19.9548 15.8961 20.7179 15.7081 21.4914 15.6193C23.2007 15.4153 22.7935 14.061 22.7935 11.9284C22.7935 9.79588 26.5549 7.41737 32.2695 3.64443C30.8951 7.62233 32.7759 7.25326 33.8246 6.80223C34.8735 6.35102 37.333 5.20284 39.2499 4.25958C36.6095 6.26902 35.2713 8.40161 37.5861 9.34484C34.6203 10.4111 33.2459 13.3227 34.8735 15.1682C33.7636 14.7225 32.2255 15.5635 31.5814 16.7347C32.7387 16.6115 34.982 16.9317 36.3563 17.3828C37.6651 17.8123 39.8255 17.3093 40.0291 15.9859C40.0399 15.9192 40.0454 15.8514 40.0456 15.7834C40.0456 15.322 39.9458 14.9737 39.7929 14.7199C39.4568 14.1613 38.8678 14.0405 38.5446 14.0405C38.0744 14.0405 37.5861 14.266 37.5861 14.6556C37.5861 15.0452 37.8755 15.2092 38.4541 15.2092C38.7705 15.2092 39.2584 15.2716 39.7929 14.7199C39.9458 14.9737 40.0456 15.322 40.0456 15.7834C40.0451 15.8504 40.0393 15.9173 40.0284 15.983C39.5224 16.3082 38.9567 16.4791 38.3817 16.4805C37.2243 16.4805 36.1394 15.9474 36.1394 14.5121C36.1394 13.0768 37.4414 12.2565 38.4903 12.2565C39.937 12.2565 41.9623 12.9127 41.9623 15.5373C41.9623 18.8592 38.1211 20.4128 35.8425 20.4128C36.2245 20.7762 36.6547 21.1147 37.1159 21.3197C38.7297 22.0374 40.154 22.9191 40.6604 24.2725C40.0456 24.2725 39.0328 23.6983 38.5626 23.1242C39.8647 24.9287 38.2854 28.248 38.4541 29.3578C38.6349 30.5469 39.8647 29.8088 39.8647 30.7316C39.8647 31.5517 39.1413 31.4082 38.8701 31.0391C38.5987 30.6701 37.7292 30.36 37.2786 30.7316C36.8809 31.0597 36.2661 31.2237 35.9947 30.8956C35.7235 30.5675 34.7289 30.6905 34.313 31.1417C33.8971 31.5927 33.3161 31.6279 33.1375 31.2852C32.9463 30.9182 32.9951 30.472 33.7688 30.3176C33.4251 29.9073 32.3779 30.6085 32.1972 29.8294C32.0672 29.2695 32.3418 29.0091 33.2459 29.0911C33.1555 28.8246 32.4865 28.7016 32.5768 28.1479C32.6672 27.5942 33.1899 27.2515 33.8066 28.0659C35.4522 30.2394 36.2117 29.0297 36.7723 28.0865C36.5915 27.5942 36.7904 27.2662 37.1341 26.9587C36.9532 26.61 37.0616 26.118 37.1882 25.7899C36.917 25.6054 36.7543 24.7851 37.0436 24.498C36.8084 24.498 36.4468 24.1904 36.4468 23.6574C36.1242 23.8908 35.7105 23.8406 35.4342 23.5344C35.0905 23.7599 34.1864 23.8009 33.7885 23.3087C33.2459 23.5548 32.2875 23.4932 32.0344 23.0216C31.557 23.1653 30.6781 22.6935 30.4973 22.1809C30.2184 22.1568 29.9475 22.0588 29.7044 21.894C28.9812 22.5092 28.0017 23.6984 28.9782 24.6006C29.9548 25.5028 31.9801 24.7645 32.0163 27.0201C31.5461 26.5691 30.6781 26.692 30.3887 26.241C29.4123 27.8813 28.0017 29.3782 25.9221 29.9933C26.2294 30.2189 26.7901 30.2394 27.007 30.2189C27.4579 30.1763 27.8388 30.6085 27.4954 31.1211C27.1517 31.6339 26.4465 31.2031 26.0305 30.7726C25.432 30.1528 25.0359 30.506 24.8732 30.6495C24.7104 30.793 24.4934 30.8752 24.2041 30.547C23.9147 30.2189 23.6434 30.4446 23.4988 30.6495C23.2638 30.9827 22.7212 30.2189 21.8532 31.1211C21.4359 31.555 20.4427 30.9982 20.8405 30.3624C20.4245 30.4856 19.6889 29.8005 20.298 29.1322C20.8586 28.5171 21.9255 29.9319 22.7935 29.5217C22.5985 29.2403 22.1919 28.7188 21.3468 28.5991C20.9128 28.5375 20.8359 27.9651 21.0394 27.5533C21.2925 27.0407 22.0702 27.3893 22.5946 28.189C23.0077 28.819 23.5531 28.8246 24.1136 28.7016C24.5074 28.4039 25.1173 28.3939 25.3886 28.4965C25.3886 28.189 25.8135 27.9223 26.139 27.9223C26.121 27.5123 26.2294 27.1432 26.7539 27.0407C26.7976 27.0321 26.8428 27.0238 26.8895 27.0188C26.5241 27.0387 26.17 26.8659 25.9215 26.5464C25.1971 26.7568 24.3946 26.3513 24.2767 25.5757C23.1316 25.4806 23.0178 24.1052 23.2999 23.6574C23.3229 23.6204 23.3487 23.586 23.377 23.5547C23.0362 23.8597 22.6007 24.0009 22.0622 23.7787C21.5559 24.598 20.6748 24.9556 19.8537 24.675C19.626 25.0847 19.2792 25.3797 18.8799 25.5035C18.9136 26.0005 18.8236 26.5636 18.2726 27.2252C18.4172 26.3229 17.4046 26.0359 17.6216 24.5596C17.5492 25.6258 14.8185 27.3893 14.3845 29.7268C14.7824 29.9319 15.2165 30.0753 15.4877 30.0139C16.1698 29.8593 16.3918 30.6701 16.1929 30.9982C15.994 31.3262 15.4334 31.4902 15.1983 31.2031C14.9633 30.9162 14.4749 31.3057 14.2399 30.7726C14.0048 30.2394 13.3537 30.424 13.0825 30.7726C12.8113 31.1211 11.907 30.3214 11.2561 31.1211C11.0125 31.4202 10.1892 31.7363 9.70079 31.5723C9.21254 31.4082 8.9232 30.834 9.08596 30.5265C8.76047 30.1779 8.75595 29.7509 9.06796 29.3782C8.95029 28.8553 9.33376 27.822 9.98119 28.23C10.3881 28.4862 11.8302 29.6961 13.087 28.312C14.1768 27.0969 13.542 26.1233 14.2399 25.9949C14.155 25.5016 14.4208 24.8877 14.7101 24.7645C14.626 24.56 14.6107 24.3248 14.6674 24.1073C14.5031 24.0921 14.3413 24.0499 14.1867 23.9819C13.6447 24.1646 13.0851 24.2623 12.5219 24.2725C12.5219 24.7645 12.0156 25.9539 11.5815 26.5281C11.4369 22.017 7.82015 21.5658 7.33179 17.9775C7.31379 18.5106 6.82543 19.0437 6.77125 19.4948C6.71696 19.946 6.48191 20.2945 6.04784 20.0895C5.61391 19.8844 5.50533 19.0231 5.9394 18.9002C6.37347 18.7771 6.29209 17.9569 6.56329 17.8544C6.83449 17.7518 6.87972 17.4238 6.77125 17.0137C6.66267 16.6037 6.82543 16.1115 6.93401 15.804C7.04245 15.4963 6.87972 14.9837 6.49994 14.7992C6.12028 14.6146 5.99369 14.1636 6.13831 13.7739C5.7405 13.4459 5.85393 12.7368 6.39147 12.6052C7.06059 12.4411 7.04245 13.6918 7.42223 13.8355C7.36808 13.5894 7.44037 13.1178 7.60313 12.8101C7.38608 12.2769 7.65742 11.8465 8.09135 11.8465C8.85091 11.8465 8.59771 13.2818 8.41684 13.733C8.67003 13.3227 9.06796 12.8511 9.3753 13.1794C9.68279 13.5073 9.63259 14.1925 9.30298 14.4915C9.03167 14.7376 8.47113 15.1272 8.63388 15.5579C8.95937 16.214 9.15825 16.9931 9.19454 17.998C9.64661 18.3876 9.93595 18.8386 9.93595 19.2077C10.2342 19.2283 10.8057 19.5089 10.8853 19.905C11.247 19.8638 11.7871 19.9461 11.9432 20.3253C12.0608 20.2535 12.3745 20.2295 12.5645 20.25C12.5651 19.9297 12.6587 19.6195 12.8293 19.3718C12.2145 18.5925 12.2325 17.3624 12.8655 16.8702C12.6853 16.3593 12.757 15.4143 13.3537 14.9221C13.3408 14.4094 13.4623 13.733 14.059 13.3023C13.9685 12.7486 14.276 11.99 14.6558 11.949C14.5653 11.4159 14.6337 10.7578 15.158 10.4501C15.0346 10.2959 14.9704 10.0876 14.9807 9.87483C14.0608 10.1003 13.7013 10.7387 13.408 11.3339C13.3719 11.0878 13.3176 10.7597 13.1909 10.5136C13.1909 11.1492 12.775 11.3749 12.757 12.2565C12.4495 11.8875 12.3411 11.2927 12.3591 10.8827C12.3736 10.5544 11.889 10.2471 12.0336 9.67293C12.757 10.4316 14.2218 8.77069 15.4877 9.30387C14.2398 6.33063 13.3357 7.76587 12.7027 8.27864C12.0698 8.79127 11.6177 8.03256 11.6901 7.54037C10.8401 7.31484 9.82737 7.35582 8.72432 7.60193C9.53803 6.39202 11.455 5.85898 12.8655 5.98197C13.4803 4.69022 14.2218 4.87477 14.9451 4.99773C15.418 5.07828 15.9704 5.08003 16.5184 5.04869C16.862 3.9619 18.8693 3.84954 19.0683 2.98828C19.2492 3.15226 19.1393 3.76934 18.9584 4.30235C19.4812 4.12491 19.9302 3.93539 20.0809 3.56247C20.1713 3.91097 20.0267 4.85419 19.8277 5.14129C20.034 5.07581 20.2474 5.04816 20.4607 5.05928C19.8277 5.46934 19.0321 6.08451 18.9056 6.18706C18.7789 6.28961 18.7065 6.49456 19.0321 6.69965C18.6704 6.78166 17.6578 7.19188 17.2418 6.8638L19.0321 6.69965Z" fill="#C8102E"/>
<path d="M19.0321 6.69965C19.1044 7.13031 19.1224 7.45836 19.3938 7.58135C19.665 7.70447 20.2618 7.95042 20.6416 8.68868C20.1895 8.54515 19.5565 8.34006 19.5022 8.83225C19.4506 9.30063 19.6318 9.28681 19.9363 9.36526C20.3341 9.4678 20.7139 10.0214 20.732 10.7597C20.4064 10.5342 19.9543 10.3496 19.665 10.3496C19.3756 10.3496 19.2942 10.4111 19.222 10.8211C19.1026 11.4975 19.3215 11.5388 19.5927 11.5798C19.864 11.6208 20.4427 11.9284 20.4788 13.0562C20.1713 12.7486 19.5547 12.5772 19.1767 12.5026C18.9688 12.4617 18.9326 12.5846 18.9056 13.0152C18.8783 13.4459 18.9236 13.5894 19.2852 13.7124C19.647 13.8355 20.0629 14.143 20.1713 14.7992C19.8277 14.6146 19.2852 14.6762 19.1224 14.7582C18.9597 14.8402 18.8715 15.2984 19.2152 16.1801C19.9548 15.8961 20.7179 15.7081 21.4914 15.6193C23.2007 15.4153 22.7935 14.061 22.7935 11.9284C22.7935 9.79588 26.5549 7.41737 32.2695 3.64443C30.8951 7.62233 32.7759 7.25326 33.8246 6.80223C34.8735 6.35102 37.333 5.20284 39.2499 4.25958C36.6095 6.26902 35.2713 8.40161 37.5861 9.34484C34.6203 10.4111 33.2459 13.3227 34.8735 15.1682C33.7636 14.7225 32.2255 15.5635 31.5814 16.7347C32.7387 16.6115 34.982 16.9317 36.3563 17.3828C37.6651 17.8123 39.8255 17.3093 40.0291 15.9859C40.0399 15.9192 40.0454 15.8514 40.0456 15.7834M19.0321 6.69965C18.7065 6.49456 18.7789 6.28961 18.9056 6.18706C19.0321 6.08451 19.8277 5.46934 20.4607 5.05928C20.2474 5.04816 20.034 5.07581 19.8277 5.14129C20.0267 4.85419 20.1713 3.91097 20.0809 3.56247C19.9302 3.93539 19.4812 4.12491 18.9584 4.30235C19.1393 3.76934 19.2492 3.15226 19.0683 2.98828C18.8693 3.84954 16.862 3.9619 16.5184 5.04869C15.9704 5.08003 15.418 5.07828 14.9451 4.99773C14.2218 4.87477 13.4803 4.69022 12.8655 5.98197C11.455 5.85898 9.53803 6.39202 8.72432 7.60193C9.82737 7.35582 10.8401 7.31484 11.6901 7.54037C11.6177 8.03256 12.0698 8.79127 12.7027 8.27864C13.3357 7.76587 14.2398 6.33063 15.4877 9.30387C14.2218 8.77069 12.757 10.4316 12.0336 9.67293C11.889 10.2471 12.3736 10.5544 12.3591 10.8827C12.3411 11.2927 12.4495 11.8875 12.757 12.2565C12.775 11.3749 13.1909 11.1492 13.1909 10.5136C13.3176 10.7597 13.3719 11.0878 13.408 11.3339C13.7013 10.7387 14.0608 10.1003 14.9807 9.87483C14.9704 10.0876 15.0346 10.2959 15.158 10.4501C14.6337 10.7578 14.5653 11.4159 14.6558 11.949C14.276 11.99 13.9685 12.7486 14.059 13.3023C13.4623 13.733 13.3408 14.4094 13.3537 14.9221C12.757 15.4143 12.6853 16.3593 12.8655 16.8702C12.2325 17.3624 12.2145 18.5925 12.8293 19.3718C12.6587 19.6195 12.5651 19.9297 12.5645 20.25C12.3745 20.2295 12.0608 20.2535 11.9432 20.3253C11.7871 19.9461 11.247 19.8638 10.8853 19.905C10.8057 19.5089 10.2342 19.2283 9.93595 19.2077C9.93595 18.8386 9.64661 18.3876 9.19454 17.998C9.15824 16.9931 8.95937 16.214 8.63388 15.5579C8.47113 15.1272 9.03167 14.7376 9.30298 14.4915C9.63259 14.1925 9.68279 13.5073 9.3753 13.1794C9.06796 12.8511 8.67003 13.3227 8.41684 13.733C8.59771 13.2818 8.85091 11.8465 8.09135 11.8465C7.65742 11.8465 7.38608 12.2769 7.60313 12.8101C7.44037 13.1178 7.36808 13.5894 7.42223 13.8355C7.04245 13.6918 7.06059 12.4411 6.39147 12.6052C5.85393 12.7368 5.7405 13.4459 6.13831 13.7739C5.99369 14.1636 6.12028 14.6146 6.49994 14.7992C6.87972 14.9837 7.04245 15.4963 6.93401 15.804C6.82543 16.1115 6.66267 16.6037 6.77125 17.0137C6.87972 17.4238 6.83449 17.7518 6.56329 17.8544C6.29209 17.9569 6.37347 18.7771 5.9394 18.9002C5.50533 19.0232 5.61391 19.8844 6.04784 20.0895C6.48191 20.2945 6.71696 19.946 6.77125 19.4948C6.82543 19.0437 7.31379 18.5106 7.33179 17.9775C7.82015 21.5658 11.4369 22.017 11.5815 26.5281C12.0156 25.9539 12.5219 24.7645 12.5219 24.2725C13.0851 24.2623 13.6447 24.1646 14.1867 23.9819C14.3413 24.0499 14.5031 24.0921 14.6674 24.1073C14.6107 24.3248 14.626 24.56 14.7101 24.7645C14.4208 24.8877 14.155 25.5016 14.2399 25.9949C13.542 26.1233 14.1768 27.0969 13.087 28.312C11.8302 29.6961 10.3881 28.4862 9.98119 28.23C9.33376 27.822 8.95029 28.8553 9.06796 29.3782C8.75595 29.7509 8.76047 30.1779 9.08596 30.5265C8.9232 30.834 9.21254 31.4082 9.70079 31.5723C10.1892 31.7363 11.0125 31.4203 11.2561 31.1211C11.907 30.3214 12.8113 31.1211 13.0825 30.7726C13.3537 30.424 14.0048 30.2394 14.2399 30.7726C14.4749 31.3057 14.9633 30.9162 15.1983 31.2031C15.4334 31.4902 15.994 31.3262 16.1929 30.9982C16.3918 30.6701 16.1698 29.8593 15.4877 30.0139C15.2165 30.0753 14.7824 29.9319 14.3845 29.7268C14.8185 27.3893 17.5492 25.6258 17.6216 24.5596C17.4046 26.0359 18.4172 26.3229 18.2726 27.2252C18.8236 26.5636 18.9136 26.0005 18.8799 25.5035C19.2792 25.3797 19.626 25.0847 19.8537 24.675C20.6748 24.9556 21.5559 24.598 22.0622 23.7787C22.6007 24.0009 23.0362 23.8597 23.377 23.5547C23.3487 23.586 23.3229 23.6204 23.2999 23.6574C23.0178 24.1052 23.1316 25.4806 24.2767 25.5757C24.3946 26.3513 25.1971 26.7568 25.9215 26.5464C26.17 26.8658 26.5241 27.0387 26.8895 27.0188C26.8428 27.0238 26.7976 27.0321 26.7539 27.0407C26.2294 27.1432 26.121 27.5123 26.139 27.9223C25.8135 27.9223 25.3886 28.189 25.3886 28.4965C25.1173 28.3939 24.5074 28.4039 24.1136 28.7016C23.5531 28.8246 23.0077 28.819 22.5946 28.189C22.0702 27.3893 21.2925 27.0407 21.0394 27.5533C20.8359 27.9651 20.9128 28.5375 21.3468 28.5991C22.1919 28.7188 22.5985 29.2403 22.7935 29.5217C21.9255 29.9319 20.8586 28.5171 20.298 29.1322C19.6889 29.8005 20.4245 30.4856 20.8405 30.3624C20.4427 30.9982 21.4359 31.555 21.8532 31.1211C22.7212 30.2189 23.2638 30.9827 23.4988 30.6495C23.6434 30.4446 23.9147 30.2189 24.2041 30.547C24.4934 30.8752 24.7104 30.793 24.8732 30.6495C25.0359 30.506 25.432 30.1528 26.0305 30.7726C26.4465 31.2031 27.1517 31.6339 27.4954 31.1211C27.8388 30.6085 27.4579 30.1763 27.007 30.2189C26.7901 30.2394 26.2294 30.2189 25.9221 29.9933C28.0017 29.3782 29.4123 27.8813 30.3887 26.241C30.6781 26.692 31.5461 26.5691 32.0163 27.0201C31.9801 24.7645 29.9548 25.5028 28.9782 24.6006C28.0017 23.6984 28.9812 22.5092 29.7044 21.894C29.9475 22.0588 30.2184 22.1568 30.4973 22.1809C30.6781 22.6935 31.557 23.1653 32.0344 23.0216C32.2875 23.4932 33.2459 23.5548 33.7885 23.3087C34.1864 23.8009 35.0905 23.7599 35.4342 23.5344C35.7105 23.8406 36.1242 23.8908 36.4468 23.6574C36.4468 24.1904 36.8084 24.498 37.0436 24.498C36.7543 24.7851 36.917 25.6054 37.1882 25.7899C37.0616 26.118 36.9532 26.61 37.1341 26.9587C36.7904 27.2662 36.5915 27.5942 36.7723 28.0865C36.2117 29.0297 35.4522 30.2394 33.8066 28.0659C33.1899 27.2515 32.6673 27.5942 32.5768 28.1479C32.4865 28.7016 33.1555 28.8246 33.2459 29.0911C32.3418 29.0091 32.0672 29.2695 32.1972 29.8294C32.3779 30.6085 33.4251 29.9073 33.7688 30.3176C32.9951 30.472 32.9463 30.9182 33.1375 31.2852C33.3161 31.6279 33.8971 31.5927 34.313 31.1417C34.7289 30.6905 35.7235 30.5675 35.9947 30.8956C36.2661 31.2237 36.8809 31.0597 37.2786 30.7316C37.7292 30.36 38.5987 30.6701 38.8701 31.0391C39.1413 31.4082 39.8647 31.5517 39.8647 30.7316C39.8647 29.8088 38.6349 30.5469 38.4541 29.3578C38.2854 28.248 39.8647 24.9287 38.5626 23.1242C39.0328 23.6983 40.0456 24.2725 40.6604 24.2725C40.154 22.9191 38.7297 22.0374 37.1159 21.3197C36.6547 21.1147 36.2245 20.7762 35.8425 20.4128C38.1211 20.4128 41.9623 18.8592 41.9623 15.5373C41.9623 12.9127 39.937 12.2565 38.4903 12.2565C37.4414 12.2565 36.1394 13.0768 36.1394 14.5121C36.1394 15.9474 37.2243 16.4805 38.3817 16.4805C38.9567 16.4791 39.5224 16.3082 40.0284 15.983C40.0393 15.9173 40.0451 15.8504 40.0456 15.7834M19.0321 6.69965C18.6704 6.78166 17.6578 7.19188 17.2418 6.8638M40.0456 15.7834C40.0456 15.322 39.9458 14.9737 39.7929 14.7199M39.7929 14.7199C39.4568 14.1613 38.8678 14.0405 38.5446 14.0405C38.0744 14.0405 37.5861 14.266 37.5861 14.6556C37.5861 15.0452 37.8755 15.2092 38.4541 15.2092C38.7705 15.2092 39.2584 15.2716 39.7929 14.7199Z" stroke="black" stroke-width="0.2"/>
<path d="M5.28809 12.2471C5.76724 11.8575 6.42246 12.1455 6.56295 12.7187C6.65339 13.0878 6.10409 13.3619 6.05659 13.0161C5.99335 12.5547 5.7311 12.2677 5.28809 12.2471Z" fill="#C8102E" stroke="black" stroke-width="0.2"/>
<path d="M7.16797 11.0546C7.72566 10.8371 8.28051 11.3259 8.27017 11.9209C8.2635 12.3037 7.66794 12.3877 7.70993 12.0411C7.7659 11.5785 7.58729 11.2183 7.16797 11.0546Z" fill="#C8102E" stroke="black" stroke-width="0.2"/>
<path d="M9.24118 12.1035C9.77309 12.392 9.86609 13.1818 9.49069 13.5976C9.24899 13.8652 8.77268 13.4513 9.01705 13.2375C9.34312 12.9526 9.43867 12.5536 9.24118 12.1035Z" fill="#C8102E" stroke="black" stroke-width="0.2"/>
<path d="M5.00586 20.3919C5.46998 20.8042 6.13541 20.5481 6.2973 19.9821C6.4015 19.6178 5.86279 19.3175 5.80255 19.6607C5.72204 20.1185 5.44928 20.3927 5.00586 20.3919Z" fill="#C8102E" stroke="black" stroke-width="0.2"/>
<path d="M8.27246 28.6834C8.46681 28.0521 9.14897 27.8602 9.5547 28.2375C9.81582 28.4805 9.50549 29.0629 9.29128 28.811C9.00537 28.4749 8.64527 28.4111 8.27246 28.6834Z" fill="#C8102E" stroke="black" stroke-width="0.2"/>
<path d="M7.66211 30.3829C7.69442 29.7153 8.48348 29.2958 8.9656 29.5306C9.27608 29.6819 9.12043 30.3391 8.85292 30.1644C8.49611 29.9315 7.95371 30.004 7.66211 30.3829Z" fill="#C8102E" stroke="black" stroke-width="0.2"/>
<path d="M8.51955 31.9574C8.31725 31.3294 8.73759 30.6909 9.26239 30.6914C9.60022 30.6917 9.68555 31.3652 9.37908 31.3243C8.97023 31.2696 8.65592 31.4791 8.51955 31.9574Z" fill="#C8102E" stroke="black" stroke-width="0.2"/>
<path d="M17.0251 31.3971C17.0949 30.7333 16.5564 30.2213 16.0458 30.3582C15.717 30.4465 15.7703 31.1242 16.0602 31.0046C16.4472 30.845 16.7955 30.967 17.0251 31.3971Z" fill="#C8102E" stroke="black" stroke-width="0.2"/>
<path d="M20.287 31.608C20.1659 30.9536 20.6625 30.3899 21.1818 30.4754C21.5162 30.5304 21.5157 31.2108 21.2175 31.1206C20.8197 31.0002 20.4823 31.1565 20.287 31.608Z" fill="#C8102E" stroke="black" stroke-width="0.2"/>
<path d="M28.423 31.4483C28.4682 30.7816 27.9113 30.2956 27.4061 30.4569C27.0809 30.5607 27.1592 31.2353 27.4446 31.1021C27.8254 30.9241 28.1778 31.0294 28.423 31.4483Z" fill="#C8102E" stroke="black" stroke-width="0.2"/>
<path d="M19.3211 30.22C19.2347 29.5587 19.8133 28.9895 20.3272 29.1099C20.6581 29.1876 20.5686 29.9066 20.2756 29.7965C19.8848 29.6494 19.5397 29.7826 19.3211 30.22Z" fill="#C8102E" stroke="black" stroke-width="0.2"/>
<path d="M20.0791 28.318C20.1114 27.6505 20.7793 27.2248 21.2614 27.4598C21.5717 27.6111 21.3565 28.2952 21.0892 28.1205C20.7323 27.8874 20.3707 27.9393 20.0791 28.318Z" fill="#C8102E" stroke="black" stroke-width="0.2"/>
<path d="M32.5301 31.9576C32.4091 31.3032 32.9056 30.7395 33.4249 30.825C33.7593 30.8802 33.7589 31.5606 33.4607 31.4704C33.0628 31.35 32.7255 31.5062 32.5301 31.9576Z" fill="#C8102E" stroke="black" stroke-width="0.2"/>
<path d="M40.6113 31.6436C40.7364 30.9902 40.2433 30.4224 39.7234 30.5039C39.3888 30.5563 39.385 31.2367 39.6837 31.1488C40.0824 31.0316 40.4189 31.1905 40.6113 31.6436Z" fill="#C8102E" stroke="black" stroke-width="0.2"/>
<path d="M31.4896 30.4406C31.4044 29.7791 31.9309 29.2512 32.4445 29.3731C32.7752 29.4515 32.7375 30.1306 32.4449 30.0196C32.0544 29.8715 31.709 30.0038 31.4896 30.4406Z" fill="#C8102E" stroke="black" stroke-width="0.2"/>
<path d="M31.79 28.6346C31.801 27.966 32.3962 27.5425 32.8855 27.7575C33.2004 27.896 33.0659 28.559 32.793 28.3955C32.429 28.1772 32.0693 28.2441 31.79 28.6346Z" fill="#C8102E" stroke="black" stroke-width="0.2"/>
<path d="M33.8237 6.80273C32.4494 7.33591 27.1327 9.71442 26.1562 10.0835C25.1798 10.4525 24.6734 10.5347 24.0947 12.0519" stroke="black" stroke-width="0.2"/>
<path d="M31.2565 5.03906C27.7845 7.58171 24.9634 9.79624 24.1677 11.8878C23.372 13.9793 23.4263 15.2506 21.4912 15.6196" stroke="black" stroke-width="0.2"/>
<path d="M15.9209 19.5562C16.7889 18.4079 18.5972 17.0136 20.3333 16.9316C19.9948 17.5554 19.7043 18.2142 19.4652 18.9001" stroke="black" stroke-width="0.2"/>
<path d="M19.4297 19.6799C19.8638 19.0237 20.9487 17.6295 21.6359 17.0553C21.3104 18.1626 20.7679 20.7872 21.0573 22.5916C21.238 20.8692 22.0337 18.2036 22.8656 16.6862C23.4805 18.3676 24.3123 20.7462 24.3123 22.2636C24.4931 20.4592 24.1315 17.3424 23.589 15.9891C25.0718 16.8502 26.9164 19.3108 27.7121 20.8282C27.1696 18.6956 25.325 16.112 24.3484 15.2918C26.7717 15.784 30.28 17.5474 31.582 18.8598C29.4482 16.6042 26.844 14.8407 24.9995 14.0205C27.8929 13.7335 33.3181 14.4717 34.8733 15.1688C32.5947 13.6924 27.8929 12.9133 25.0718 13.1183C28.0376 11.6829 33.3181 10.0426 37.5859 9.34541C34.3307 9.55037 30.1353 10.5347 25.8314 11.6419C27.7483 10.1655 33.6798 7.37695 35.0903 6.88477" stroke="black" stroke-width="0.2"/>
<path d="M16.7891 5.81837C17.0473 4.85056 18.1012 4.59369 18.9577 4.30273" stroke="black" stroke-width="0.2"/>
<path d="M18.2175 6.53601C17.4942 6.47445 17.3656 6.18301 17.7654 5.85927C18.0186 5.65418 18.543 5.3261 18.9047 5.28511C18.8143 5.2647 18.5611 5.18257 18.4345 5.16216C18.8143 4.9776 19.4472 4.71095 19.6642 4.46484" stroke="black" stroke-width="0.2"/>
<path d="M17.3765 4.97852C17.0998 5.00696 16.8093 5.03316 16.5176 5.04989" stroke="black" stroke-width="0.2"/>
<path d="M15.5056 9.79688C15.3291 9.80735 15.1536 9.83374 14.9805 9.87582" stroke="black" stroke-width="0.2"/>
<path d="M12.5637 20.25C12.5567 20.8398 12.7349 21.4114 13.0635 21.8529C13.3529 22.222 15.1252 22.3451 15.1975 21.6478" stroke="black" stroke-width="0.2"/>
<path d="M12.8291 19.372C13.4439 20.1511 15.4332 19.6795 15.4332 19.1055" stroke="black" stroke-width="0.2"/>
<path d="M12.8652 16.8711C13.0823 17.4862 15.397 18.0399 15.4331 17.3221" stroke="black" stroke-width="0.2"/>
<path d="M13.3535 14.9219C13.3717 15.6396 15.4797 16.1057 15.5418 15.578" stroke="black" stroke-width="0.2"/>
<path d="M14.0586 13.3027C14.149 13.8563 15.5416 14.3895 15.7405 14.1434" stroke="black" stroke-width="0.2"/>
<path d="M14.6553 11.9492C14.7212 12.3381 15.7222 12.6874 16.0658 12.5438" stroke="black" stroke-width="0.2"/>
<path d="M15.1572 10.4512C15.3624 10.7336 15.7604 10.9964 16.4453 11.1298" stroke="black" stroke-width="0.2"/>
<path d="M11.6895 7.53987C11.7075 7.10924 12.0691 7.04781 12.0149 6.61719" stroke="black" stroke-width="0.2"/>
<path d="M15.4873 9.30448C15.6139 9.52999 15.9394 10.0016 15.9755 10.3503C16.1564 10.1861 16.301 9.83749 16.3553 9.67355C16.528 9.84454 16.6539 10.073 16.7169 10.3297C16.7894 10.0836 16.916 9.65298 16.934 9.38645C17.193 9.45483 17.4347 9.59536 17.6393 9.79651C17.6754 9.52999 17.567 9.18136 17.3861 9.0378C17.586 9.04769 17.7848 8.99837 17.9647 8.89427C17.8382 8.68931 17.6393 8.42265 17.4403 8.29966C17.6213 8.2381 17.8743 7.99219 17.9829 7.88961C17.8201 7.80764 17.5308 7.62295 17.3499 7.52055C17.4584 7.39742 17.5488 7.15151 17.6031 6.9668" stroke="black" stroke-width="0.2"/>
<path d="M12.4857 5.97266C12.3682 5.97266 12.3139 6.28016 12.5309 6.47498C12.687 6.61515 12.6846 7.19271 12.4043 7.33624" stroke="black" stroke-width="0.2"/>
<path d="M16.7164 10.3301C15.9209 12.4215 15.1884 16.3893 15.4416 19.26" stroke="black" stroke-width="0.2"/>
<path d="M16.3008 23.1864C16.3008 23.6171 16.8976 23.6991 16.8795 22.6738" stroke="black" stroke-width="0.2"/>
<path d="M16.8252 23.1865C16.8975 23.5556 17.5123 23.6376 17.3857 22.5508" stroke="black" stroke-width="0.2"/>
<path d="M16.5723 23.4727C16.6084 24.2723 17.0605 24.2314 17.0966 23.4727" stroke="black" stroke-width="0.2"/>
<path d="M17.4043 22.9188C17.5851 23.411 18.0914 23.1649 17.9468 22.0781" stroke="black" stroke-width="0.2"/>
<path d="M17.9648 22.5497C18.1639 22.9599 18.634 22.6318 18.6883 21.9141" stroke="black" stroke-width="0.2"/>
<path d="M15.6135 20.2754C15.3032 20.6607 14.9472 21.5257 15.3783 22.3464C15.6316 22.8281 16.3278 23.0948 16.4001 22.8077" stroke="black" stroke-width="0.2"/>
<path d="M15.379 22.3457C15.0987 22.397 14.6865 23.0782 14.8908 23.7297C15.0355 24.191 15.8674 24.468 15.9939 24.1296" stroke="black" stroke-width="0.2"/>
<path d="M23.8779 22.9196C24.7821 23.0428 25.9757 22.3456 26.048 20.9512" stroke="black" stroke-width="0.2"/>
<path d="M25.9395 21.6073C26.4458 21.9764 27.4947 22.0995 27.9287 21.1562" stroke="black" stroke-width="0.2"/>
<path d="M26.4097 21.8945C25.9395 23.1249 25.5135 24.432 26.482 25.3804C27.2777 26.1597 27.8687 24.998 28.833 26.1597C29.1223 26.5082 28.7787 27.1643 25.8672 29.0714" stroke="black" stroke-width="0.2"/>
<path d="M11.9427 20.3262C12.1327 20.7875 12.1146 21.6898 11.7529 21.5666" stroke="black" stroke-width="0.2"/>
<path d="M9.08594 30.5269C9.70076 29.4607 10.4267 30.3223 10.9485 30.1373" stroke="black" stroke-width="0.2"/>
<path d="M13.8867 6.15625C13.7781 6.45362 14.0669 6.86963 14.3388 6.90482C14.6552 6.9458 15.1073 6.71 15.0079 6.33066" fill="white"/>
<path d="M13.8867 6.15625C13.7781 6.45362 14.0669 6.86963 14.3388 6.90482C14.6552 6.9458 15.1073 6.71 15.0079 6.33066" stroke="black" stroke-width="0.2"/>
<path d="M13.5703 6.1865C13.733 5.93012 15.6319 6.74012 16.3914 6.16593" stroke="black" stroke-width="0.2"/>
<path d="M7.42178 13.8359C7.34948 14.0203 7.37657 14.5638 7.65697 14.8612" stroke="black" stroke-width="0.2"/>
<path d="M20.8398 30.3636C20.9846 30.1587 21.52 29.9517 21.9158 30.0664C22.3047 30.1791 23.0009 30.0254 23.453 29.8203" stroke="black" stroke-width="0.2"/>
<path d="M16.7163 10.3301C16.5356 12.3396 16.9425 15.4256 17.9823 16.7995" stroke="black" stroke-width="0.2"/>
<path d="M16.1709 12.1133C16.2007 13.9014 16.5868 16.0243 17.3502 17.1929" stroke="black" stroke-width="0.2"/>
<path d="M15.7529 14.0625C15.9032 15.4157 16.2416 16.7763 16.7763 17.6601" stroke="black" stroke-width="0.2"/>
<path d="M15.4902 16.1172C15.6708 16.9202 15.9251 17.6573 16.2553 18.2115" stroke="black" stroke-width="0.2"/>
<path d="M15.3975 18.0605C15.4991 18.319 15.6196 18.5663 15.7577 18.7996" stroke="black" stroke-width="0.2"/>
<path d="M16.6809 11.5801C16.6267 12.2158 16.2831 12.7078 15.9756 12.9949" stroke="black" stroke-width="0.2"/>
<path d="M16.7164 12.4629C16.6622 13.0984 16.2825 13.6726 15.7852 13.9494" stroke="black" stroke-width="0.2"/>
<path d="M16.8249 13.3438C16.7706 13.9793 16.2281 14.7586 15.6133 15.1071" stroke="black" stroke-width="0.2"/>
<path d="M16.9696 14.2266C16.9155 14.8623 16.2102 15.8259 15.4922 16.1352" stroke="black" stroke-width="0.2"/>
<path d="M17.196 15.1074C16.988 15.9687 16.1562 16.9735 15.4238 17.199" stroke="black" stroke-width="0.2"/>
<path d="M17.5213 15.9902C17.4671 16.6258 16.3549 17.9177 15.3965 18.2867" stroke="black" stroke-width="0.2"/>
<path d="M10.8853 19.9062C11.0028 20.4905 10.6139 21.0238 10.415 20.8802" stroke="black" stroke-width="0.2"/>
<path d="M12.9553 21.9351C11.0746 21.4839 9.67621 20.7323 8.9046 18.9823C8.70558 18.5312 9.23009 18.4081 9.19394 17.998" stroke="black" stroke-width="0.2"/>
<path d="M8.63326 15.5573C8.30777 14.9012 8.23534 14.1835 8.41621 13.7324" stroke="black" stroke-width="0.2"/>
<path d="M9.93564 19.209C9.93564 19.5782 9.5468 20.0497 9.41113 19.8754" stroke="black" stroke-width="0.2"/>
<path d="M13.0639 21.8535C12.8472 22.4505 13.2664 23.5905 14.1862 23.9826" stroke="black" stroke-width="0.2"/>
<path d="M14.8904 23.7285C14.7819 23.8206 14.703 23.954 14.667 24.1068" stroke="black" stroke-width="0.2"/>
<path d="M15.6323 24.9502C15.4694 25.2578 14.8365 25.0323 14.71 24.7656" stroke="black" stroke-width="0.2"/>
<path d="M13.0865 28.3125C12.3197 29.1673 11.5386 29.2156 10.6045 29.3377C9.66407 29.4609 9.40193 28.9789 9.06738 29.3787" stroke="black" stroke-width="0.2"/>
<path d="M19.212 21.8945C19.3207 22.4687 19.2844 23.0429 18.8504 23.9041C18.6108 24.3793 18.8378 24.8919 18.8791 25.5042" stroke="black" stroke-width="0.2"/>
<path d="M23.377 23.5553C23.7915 23.1843 24.0651 22.5723 24.204 22.0996" stroke="black" stroke-width="0.2"/>
<path d="M22.0615 23.7793C22.5332 23.0476 22.6068 22.0572 22.2504 21.2383" stroke="black" stroke-width="0.2"/>
<path d="M19.8535 24.6758C20.1315 24.1891 20.2978 23.4958 20.2978 22.5918" stroke="black" stroke-width="0.2"/>
<path d="M14.2393 25.9961C14.3116 26.4164 14.8722 26.601 14.9627 26.396" stroke="black" stroke-width="0.2"/>
<path d="M18.7241 21.0527C18.7241 21.4628 18.3625 21.7705 18.0911 21.5243C18.1273 22.1189 17.7476 22.3036 17.4763 22.0166C17.5306 22.8572 16.9158 22.9392 16.5179 22.2831C16.0658 24.8051 14.5468 26.6916 14.4382 27.9219C14.402 28.209 13.4345 28.127 13.6877 27.2863" stroke="black" stroke-width="0.2"/>
<path d="M25.2891 23.3711C24.7465 23.2943 23.7923 23.1052 23.377 23.5555" stroke="black" stroke-width="0.2"/>
<path d="M25.5059 25.2988C25.0045 25.5243 24.5993 25.6036 24.2764 25.5767" stroke="black" stroke-width="0.2"/>
<path d="M26.8887 27.0189C27.3884 26.9967 27.9038 26.62 28.1094 25.6875" stroke="black" stroke-width="0.2"/>
<path d="M25.9209 26.5465C26.3402 26.4279 26.6962 26.0999 26.8979 25.6465" stroke="black" stroke-width="0.2"/>
<path d="M28.3806 27.2261C28.0657 27.1133 27.4011 26.9644 26.8887 27.0197" stroke="black" stroke-width="0.2"/>
<path d="M26.5909 28.5986C26.7898 28.4755 26.4643 27.9219 26.1387 27.9219" stroke="black" stroke-width="0.2"/>
<path d="M22.793 29.5213C23.2535 29.2974 23.6954 29.0228 24.113 28.7012" stroke="black" stroke-width="0.2"/>
<path d="M25.3877 28.4961C25.6332 28.589 25.9935 28.9471 25.8669 29.0703" stroke="black" stroke-width="0.2"/>
<path d="M27.7119 20.8281C28.0013 21.4023 28.5436 21.7714 29.2671 21.4023C29.318 21.5752 29.4899 21.7527 29.704 21.8945" stroke="black" stroke-width="0.2"/>
<path d="M31.7086 20.6836C32.0704 21.0117 31.4374 22.2214 30.4971 22.1804" stroke="black" stroke-width="0.2"/>
<path d="M36.772 28.0866C36.8974 28.4279 37.3688 28.3941 37.5497 28.0866C37.7562 27.7352 38.1284 26.6512 37.9113 24.4776C37.6943 22.3042 35.8498 22.0171 33.7159 21.5249C31.5819 21.0329 31.0394 20.2536 30.6055 18.8184" stroke="black" stroke-width="0.2"/>
<path d="M37.1338 26.9591C37.3145 27.3076 37.8209 27.2256 37.8932 26.877" stroke="black" stroke-width="0.2"/>
<path d="M37.1875 25.791C37.4588 25.9755 37.9832 25.914 37.9651 25.5039" stroke="black" stroke-width="0.2"/>
<path d="M37.043 24.498C37.278 24.498 37.911 24.539 37.8748 24.2109" stroke="black" stroke-width="0.2"/>
<path d="M36.4463 23.6582C36.6452 23.494 37.2059 22.7969 36.8984 22.5918" stroke="black" stroke-width="0.2"/>
<path d="M35.4336 23.5341C35.7771 23.3084 36.1569 22.1397 35.7409 22.0371" stroke="black" stroke-width="0.2"/>
<path d="M33.7881 23.3084C34.3306 23.0623 34.837 21.791 34.4753 21.709" stroke="black" stroke-width="0.2"/>
<path d="M32.0342 23.0222C32.9202 22.7557 33.1915 21.4024 32.8479 21.2793" stroke="black" stroke-width="0.2"/>
<path d="M33.2451 29.0918C34.168 29.1755 34.6738 29.7275 35.0354 29.953" stroke="black" stroke-width="0.2"/>
<path d="M33.0283 17.9573C33.8691 17.8651 34.6957 19.3231 35.8418 20.4131" stroke="black" stroke-width="0.2"/>
<path d="M42.2998 11.4989C42.458 10.8636 42.5906 10.2668 42.6488 9.91992" stroke="black" stroke-width="0.2"/>
<path d="M33.7686 30.3175C33.9844 30.2769 34.2027 30.2576 34.4212 30.26" stroke="black" stroke-width="0.2"/>
<path d="M41.9622 9.42773C41.84 9.82027 41.5773 10.6192 41.3154 11.3872" stroke="black" stroke-width="0.2"/>
<path d="M19.2144 16.1797C17.6194 16.8032 15.9677 18.0004 14.9082 20.2121C15.4869 20.376 16.6081 20.2121 17.1144 20.007C17.1506 20.5402 17.1506 21.2373 17.1506 21.6885C17.657 21.2373 18.2718 20.5811 18.742 20.4172C18.7057 20.9502 18.7057 21.8934 18.7057 22.2627C19.393 21.4424 20.695 21.3604 21.0567 22.5906C21.3461 20.7862 23.733 20.7043 24.3117 22.2627C24.9629 20.8272 26.6266 20.294 27.7116 20.8272C28.1817 19.3098 30.2432 18.4897 31.5814 18.8588C31.1379 18.1636 31.2171 17.3949 31.5806 16.7343" stroke="black" stroke-width="0.2"/>
<path d="M14.1016 6.22656L14.8109 6.37528C14.8109 6.37528 14.3116 7.13385 14.1016 6.22656Z" fill="black" stroke="black" stroke-width="0.2" stroke-linejoin="round"/>
</g>
<defs>
<clipPath id="clip0_1130_1372">
<rect width="49" height="35" rx="8" fill="white"/>
</clipPath>
</defs>
</svg>
