<svg width="49" height="35" viewBox="0 0 49 35" fill="none" xmlns="http://www.w3.org/2000/svg">
<g clip-path="url(#clip0_1130_1537)">
<path d="M0 35V0H49V35H0Z" fill="#006EB6"/>
<path d="M24.5002 26.852L24.5002 31.8438" stroke="#003100" stroke-width="0.2"/>
<path d="M24.5433 27.664C24.5421 27.6694 24.5402 28.5968 24.5413 29.7252L24.5415 31.7767L25.1209 30.832C25.4398 30.3125 25.6995 29.8845 25.6997 29.8826C25.6994 29.88 25.6573 29.8356 25.6063 29.784C25.3068 29.4807 25.0735 29.1273 24.8846 28.6907C24.7642 28.4127 24.6554 28.085 24.5827 27.7796C24.5558 27.6659 24.5481 27.6434 24.5434 27.664L24.5433 27.664Z" fill="#658D1B"/>
<path d="M23.2438 29.8754L24.4967 31.9283L25.7496 29.8754" stroke="#003100" stroke-width="0.2" stroke-linecap="square"/>
<path d="M24.4581 27.6478C24.4593 27.6532 24.4604 28.5796 24.4601 29.7091L24.46 31.7606L23.8805 30.8159C23.5612 30.2953 23.3008 29.8681 23.3018 29.8664C23.3021 29.8638 23.344 29.8196 23.3951 29.7679C23.6948 29.465 23.9276 29.112 24.1169 28.6746C24.2374 28.3962 24.3466 28.0685 24.4187 27.7634C24.446 27.6497 24.4535 27.6274 24.4581 27.6478L24.4581 27.6478Z" fill="#78BE20"/>
<path d="M17.2615 20.5903L13.2736 22.1328" stroke="#003100" stroke-width="0.2"/>
<path d="M16.6274 20.892C16.6228 20.8923 15.8813 21.1767 14.9801 21.5266L13.3413 22.1608L14.275 22.525C14.7886 22.7255 15.2108 22.8873 15.2124 22.8869C15.2144 22.8857 15.2368 22.8244 15.2622 22.7507C15.412 22.3178 15.6223 21.9445 15.9126 21.5957C16.0976 21.3735 16.3257 21.149 16.5473 20.9723C16.6297 20.9067 16.6454 20.891 16.6275 20.8921L16.6274 20.892Z" fill="#658D1B"/>
<path d="M14.4585 20.1028L13.2057 22.1557L15.2329 22.9399" stroke="#003100" stroke-width="0.2" stroke-linecap="square"/>
<path d="M16.6141 20.7887C16.6102 20.7917 15.8705 21.0793 14.968 21.4279L13.3291 22.0617L13.9047 21.1138C14.2219 20.5914 14.4828 20.1644 14.4844 20.1651C14.4866 20.1647 14.5349 20.1984 14.592 20.2403C14.9265 20.4861 15.2805 20.6404 15.6884 20.7196C15.9481 20.7701 16.2436 20.7924 16.5096 20.7798C16.6089 20.7755 16.6291 20.7771 16.6142 20.7887L16.6141 20.7887Z" fill="#78BE20"/>
<path d="M20.0261 10.4587L17.5614 6.42035" stroke="#003100" stroke-width="0.2"/>
<path d="M19.5901 9.83187C19.5884 9.82668 19.132 9.07508 18.5739 8.16289L17.5608 6.50345L17.5585 7.67315C17.557 8.3166 17.5582 8.84455 17.5591 8.84625C17.5606 8.84812 17.6165 8.85462 17.6832 8.86064C18.0753 8.89637 18.4386 9.01907 18.807 9.24003C19.0416 9.38077 19.2915 9.56971 19.5011 9.76593C19.579 9.83901 19.5964 9.85186 19.59 9.83191L19.5901 9.83187Z" fill="#658D1B"/>
<path d="M19.55 7.13336L17.5228 6.34931L17.5229 8.88681" stroke="#003100" stroke-width="0.2" stroke-linecap="square"/>
<path d="M19.6674 9.78488C19.6637 9.78136 19.2054 9.03274 18.648 8.11875L17.6352 6.45903L18.5703 6.81778C19.0857 7.01545 19.5074 7.17885 19.5074 7.18087C19.5084 7.18322 19.4963 7.24837 19.4805 7.32593C19.3876 7.78067 19.3736 8.22915 19.4365 8.71548C19.4764 9.02503 19.5499 9.36655 19.6422 9.66384C19.6763 9.77486 19.6812 9.79824 19.6674 9.78493L19.6674 9.78488Z" fill="#78BE20"/>
<path d="M20.335 16.041L24.5 12.541L28.665 16.041L26.95 21.8743H21.9275L20.335 16.041Z" fill="white"/>
<path d="M28.9736 10.4622L31.4383 6.42383" stroke="#003100" stroke-width="0.2"/>
<path d="M29.3384 9.77521C29.342 9.77168 29.8014 9.02271 30.3578 8.10904L31.3704 6.44922L30.4353 6.808C29.9208 7.00516 29.4994 7.16966 29.4983 7.17112C29.4972 7.17349 29.5093 7.23879 29.5251 7.31617C29.6177 7.77117 29.6319 8.22034 29.5693 8.70573C29.5293 9.01489 29.4556 9.35614 29.3636 9.65408C29.3293 9.76491 29.3244 9.78854 29.3383 9.77515L29.3384 9.77521Z" fill="#658D1B"/>
<path d="M31.4823 8.89492V6.35742L29.4551 7.14154" stroke="#003100" stroke-width="0.2" stroke-linecap="square"/>
<path d="M29.3997 9.84809C29.4014 9.8429 29.8578 9.09267 30.4158 8.17909L31.4288 6.51953L31.4311 7.68923C31.4324 8.33381 31.4322 8.86173 31.4306 8.86234C31.429 8.86421 31.3732 8.87071 31.3064 8.87675C30.9144 8.91204 30.5518 9.03484 30.1827 9.25621C29.9477 9.39709 29.6976 9.58579 29.4886 9.78214C29.4104 9.85506 29.3933 9.86789 29.3997 9.84815L29.3997 9.84809Z" fill="#78BE20"/>
<path d="M31.7327 20.5935L35.7205 22.1363" stroke="#003100" stroke-width="0.2"/>
<path d="M32.394 20.7938C32.3979 20.7968 33.1382 21.0856 34.04 21.4331L35.679 22.0669L35.1034 21.1189C34.7869 20.5973 34.5253 20.171 34.5238 20.1702C34.5216 20.1698 34.4731 20.2036 34.4162 20.2454C34.0813 20.4909 33.7269 20.6457 33.3197 20.7247C33.0604 20.775 32.765 20.797 32.4985 20.7849C32.3994 20.7803 32.379 20.782 32.394 20.7937L32.394 20.7938Z" fill="#658D1B"/>
<path d="M33.7593 22.9504L35.7865 22.1663L34.5337 20.1134" stroke="#003100" stroke-width="0.2" stroke-linecap="square"/>
<path d="M32.3549 20.8873C32.3596 20.8876 33.0999 21.1726 34.0022 21.522L35.641 22.1562L34.7073 22.5203C34.1927 22.721 33.7709 22.8838 33.7699 22.8822C33.7679 22.881 33.7455 22.8198 33.72 22.746C33.5707 22.3131 33.3606 21.9405 33.0697 21.5909C32.8845 21.3684 32.6565 21.1435 32.435 20.9676C32.3526 20.9016 32.3371 20.8862 32.3548 20.8873L32.3549 20.8873Z" fill="#78BE20"/>
<path d="M20.58 11.3743C17.395 6.12435 21.805 4.22852 24.5 4.22852C27.195 4.22852 31.605 6.12435 28.42 11.3743" fill="white"/>
<path d="M20.58 11.3743C17.395 6.12435 21.805 4.22852 24.5 4.22852C27.195 4.22852 31.605 6.12435 28.42 11.3743" stroke="#6A5000" stroke-width="0.2"/>
<path d="M18.1626 20.2459C12.9931 22.2292 12.8216 16.6584 13.6651 13.5994C14.4981 10.5369 17.3646 6.13274 20.5851 11.3693" fill="white"/>
<path d="M18.1626 20.2459C12.9931 22.2292 12.8216 16.6584 13.6651 13.5994C14.4981 10.5369 17.3646 6.13274 20.5851 11.3693" stroke="#6A5000" stroke-width="0.2"/>
<path d="M24.5025 25.7262C24.4871 32.2012 19.9945 30.6554 17.803 28.7642C15.6225 26.8771 13.001 22.26 18.1598 20.2402" fill="white"/>
<path d="M24.5025 25.7262C24.4871 32.2012 19.9945 30.6554 17.803 28.7642C15.6225 26.8771 13.001 22.26 18.1598 20.2402" stroke="#6A5000" stroke-width="0.2"/>
<path d="M30.8407 20.2402C36.0102 22.2586 33.3887 26.8902 31.1976 28.7642C29.0171 30.6513 24.5091 32.2059 24.498 25.7262" fill="white"/>
<path d="M30.8407 20.2402C36.0102 22.2586 33.3887 26.8902 31.1976 28.7642C29.0171 30.6513 24.5091 32.2059 24.498 25.7262" stroke="#6A5000" stroke-width="0.2"/>
<path d="M28.415 11.3699C31.6245 6.14903 34.491 10.5474 35.3351 13.5999C36.1681 16.6624 36.0162 22.2333 30.8376 20.2464" fill="white"/>
<path d="M28.415 11.3699C31.6245 6.14903 34.491 10.5474 35.3351 13.5999C36.1681 16.6624 36.0162 22.2333 30.8376 20.2464" stroke="#6A5000" stroke-width="0.2"/>
<path d="M21.8975 21.9458L20.465 24.293" stroke="#003100" stroke-width="0.2"/>
<path d="M21.6852 22.3443C21.6831 22.3463 21.4161 22.7816 21.0927 23.3127L20.5042 24.2773L21.0477 24.0688C21.3467 23.9542 21.5916 23.8586 21.5923 23.8578C21.5929 23.8564 21.5858 23.8184 21.5767 23.7735C21.5228 23.509 21.5146 23.248 21.551 22.9659C21.5742 22.7862 21.6171 22.5878 21.6706 22.4147C21.6905 22.3503 21.6933 22.3365 21.6852 22.3443L21.6852 22.3443Z" fill="#658D1B"/>
<path d="M20.439 22.8553V24.3301L21.6172 23.8743" stroke="#003100" stroke-width="0.2" stroke-linecap="square"/>
<path d="M21.6497 22.3018C21.6487 22.3048 21.3834 22.7408 21.0591 23.2718L20.4704 24.2363L20.469 23.5565C20.4682 23.1819 20.4684 22.875 20.4693 22.8747C20.4702 22.8736 20.5026 22.8698 20.5415 22.8663C20.7693 22.8458 20.9801 22.7744 21.1946 22.6458C21.3312 22.5639 21.4765 22.4542 21.598 22.3401C21.6434 22.2977 21.6534 22.2903 21.6497 22.3017L21.6497 22.3018Z" fill="#78BE20"/>
<path d="M27.0729 7.14557C26.3379 7.14557 25.5294 7.72891 24.5004 7.72891C23.4714 7.72891 22.6629 7.14557 21.9279 7.14557C21.1929 7.14557 20.8254 7.72891 21.8054 9.47891C19.4779 7.43724 20.9479 6.06641 21.9279 6.06641C22.9079 6.06641 23.4714 6.56224 24.5004 6.56224C25.5294 6.56224 26.0929 6.06641 27.0729 6.06641C28.0529 6.06641 29.5229 7.43724 27.1954 9.47891C28.1754 7.72891 27.8079 7.14557 27.0729 7.14557Z" fill="#D1D159" stroke="#D1D159" stroke-width="0.2"/>
<path d="M24.5007 12.4223L24.5007 9.52107" stroke="#003100" stroke-width="0.2"/>
<path d="M24.4755 11.9515C24.4762 11.9484 24.4772 11.4094 24.4766 10.7535L24.4765 9.56122L24.1397 10.1103C23.9544 10.4122 23.8035 10.6609 23.8034 10.6621C23.8036 10.6636 23.828 10.6894 23.8576 10.7193C24.0317 10.8956 24.1673 11.101 24.2771 11.3548C24.3471 11.5164 24.4103 11.7068 24.4525 11.8843C24.4682 11.9504 24.4727 11.9635 24.4754 11.9515L24.4755 11.9515Z" fill="#658D1B"/>
<path d="M25.2302 10.6656L24.502 9.47244L23.7738 10.6656" stroke="#003100" stroke-width="0.2" stroke-linecap="square"/>
<path d="M24.5251 11.9611C24.5244 11.9579 24.5237 11.4195 24.5239 10.7631L24.524 9.57077L24.8608 10.1198C25.0464 10.4224 25.1977 10.6707 25.1971 10.6716C25.1969 10.6731 25.1726 10.6989 25.1429 10.7289C24.9687 10.9049 24.8334 11.1101 24.7234 11.3643C24.6534 11.5261 24.5899 11.7166 24.548 11.8939C24.5321 11.96 24.5278 11.973 24.5251 11.9611L24.5251 11.9611Z" fill="#78BE20"/>
<path d="M21.8054 9.47891C19.4779 7.43724 20.9479 6.06641 21.9279 6.06641C22.9079 6.06641 23.4714 6.56224 24.5004 6.56224C25.5294 6.56224 26.0929 6.06641 27.0729 6.06641C28.0529 6.06641 29.5229 7.43724 27.1954 9.47891" stroke="#6A5000" stroke-width="0.2"/>
<path d="M16.7894 11.5851C16.5623 12.4172 16.7785 13.5129 16.4605 14.6779C16.1426 15.843 15.4268 16.5782 15.1997 17.4103C14.9726 18.2425 15.325 18.8389 17.0259 18.27C14.6757 20.2744 14.0347 18.1865 14.3375 17.0769C14.6403 15.9673 15.2106 15.4825 15.5285 14.3175C15.8464 13.1524 15.6244 12.3612 15.9272 11.2516C16.23 10.142 17.7794 8.90123 18.6913 12.1673C17.5961 10.517 17.0165 10.7529 16.7894 11.5851Z" fill="#D1D159" stroke="#D1D159" stroke-width="0.2"/>
<path d="M17.0259 18.27C14.6757 20.2744 14.0347 18.1865 14.3375 17.0769C14.6403 15.9673 15.2106 15.4825 15.5285 14.3175C15.8464 13.1524 15.6244 12.3612 15.9272 11.2516C16.23 10.142 17.7794 8.90123 18.6913 12.1673" stroke="#6A5000" stroke-width="0.2"/>
<path d="M17.1627 24.6051C17.7573 25.1194 18.6994 25.2133 19.5319 25.9333C20.3644 26.6533 20.7305 27.691 21.3251 28.2053C21.9197 28.7196 22.505 28.5049 22.5762 26.4033C23.4512 29.6837 21.5851 29.7641 20.7923 29.0784C19.9994 28.3926 19.7884 27.5972 18.9559 26.8772C18.1234 26.1571 17.4227 26.164 16.6299 25.4782C15.837 24.7925 15.3246 22.6548 18.2156 22.6317C16.5588 23.3617 16.5681 24.0908 17.1627 24.6051Z" fill="#D1D159" stroke="#D1D159" stroke-width="0.2"/>
<path d="M22.5762 26.4033C23.4512 29.6837 21.5851 29.7641 20.7923 29.0784C19.9994 28.3926 19.7884 27.5972 18.9559 26.8772C18.1234 26.1571 17.4227 26.164 16.6299 25.4782C15.837 24.7925 15.3246 22.6548 18.2156 22.6317" stroke="#6A5000" stroke-width="0.2"/>
<path d="M27.0987 21.9446L28.531 24.2916" stroke="#003100" stroke-width="0.2"/>
<path d="M27.352 22.3079C27.353 22.3109 27.6182 22.7477 27.9425 23.2778L28.5312 24.2423L28.5326 23.5625C28.5334 23.1886 28.5328 22.8817 28.5323 22.8807C28.5314 22.8797 28.4989 22.8759 28.4601 22.8724C28.2322 22.8516 28.0211 22.7803 27.8071 22.6519C27.6707 22.57 27.5255 22.4602 27.4037 22.3462C27.3584 22.3037 27.3483 22.2963 27.352 22.3078L27.352 22.3079Z" fill="#658D1B"/>
<path d="M27.3748 23.8761L28.5529 24.3319L28.553 22.8572" stroke="#003100" stroke-width="0.2" stroke-linecap="square"/>
<path d="M27.307 22.3346C27.3091 22.3367 27.5754 22.7718 27.8993 23.303L28.4879 24.2675L27.9444 24.059C27.6449 23.9441 27.3999 23.8491 27.3999 23.848C27.3993 23.8466 27.4063 23.8087 27.4155 23.7637C27.4695 23.4994 27.4776 23.2388 27.4411 22.9561C27.4179 22.7762 27.3752 22.5778 27.3216 22.405C27.3018 22.3405 27.2989 22.3269 27.307 22.3346L27.307 22.3346Z" fill="#78BE20"/>
<path d="M27.6752 28.2054C28.2698 27.6911 28.6359 26.6534 29.4683 25.9334C30.3008 25.2133 31.2429 25.1195 31.8376 24.6052C32.4322 24.0909 32.4415 23.3618 30.7846 22.6318C33.6756 22.6549 33.1632 24.7925 32.3704 25.4783C31.5775 26.164 30.8769 26.1572 30.0444 26.8772C29.2119 27.5972 29.0008 28.3927 28.208 29.0784C27.4152 29.7642 25.5491 29.6838 26.424 26.4034C26.4952 28.5049 27.0805 28.7197 27.6752 28.2054Z" fill="#D1D159" stroke="#D1D159" stroke-width="0.2"/>
<path d="M30.7846 22.6318C33.6756 22.6549 33.1632 24.7925 32.3704 25.4783C31.5775 26.164 30.8769 26.1572 30.0444 26.8772C29.2119 27.5972 29.0008 28.3927 28.208 29.0784C27.4152 29.7642 25.5491 29.6838 26.424 26.4034" stroke="#6A5000" stroke-width="0.2"/>
<path d="M28.7083 16.059L31.0261 15.1625" stroke="#003100" stroke-width="0.2"/>
<path d="M29.0773 15.8852C29.0801 15.885 29.511 15.7197 30.0348 15.5164L30.9872 15.1478L30.4446 14.9361C30.1461 14.8196 29.9007 14.7256 29.8998 14.7258C29.8986 14.7265 29.8856 14.7621 29.8708 14.8049C29.7838 15.0565 29.6616 15.2735 29.4928 15.4762C29.3853 15.6054 29.2527 15.7358 29.1239 15.8385C29.076 15.8767 29.0669 15.8858 29.0773 15.8852L29.0773 15.8852Z" fill="#658D1B"/>
<path d="M30.3373 16.3418L31.0655 15.1487L29.8873 14.6929" stroke="#003100" stroke-width="0.2" stroke-linecap="square"/>
<path d="M29.0845 15.9425C29.0868 15.9408 29.5167 15.7737 30.0412 15.571L30.9937 15.2027L30.6592 15.7536C30.4748 16.0572 30.3232 16.3054 30.3223 16.305C30.321 16.3052 30.2929 16.2856 30.2597 16.2613C30.0653 16.1184 29.8596 16.0287 29.6225 15.9827C29.4716 15.9534 29.2998 15.9404 29.1452 15.9477C29.0875 15.9502 29.0758 15.9493 29.0844 15.9426L29.0845 15.9425Z" fill="#78BE20"/>
<path d="M33.7946 17.4158C33.5675 16.5836 32.8516 15.8485 32.5337 14.6834C32.2158 13.5184 32.432 12.4227 32.2049 11.5905C31.9778 10.7584 31.3982 10.5225 30.3029 12.1728C31.2148 8.90671 32.7642 10.1475 33.067 11.2571C33.3698 12.3667 33.1478 13.1579 33.4658 14.3229C33.7837 15.488 34.3539 15.9728 34.6567 17.0824C34.9595 18.192 34.3186 20.2799 31.9683 18.2755C33.6692 18.8443 34.0217 18.248 33.7946 17.4158Z" fill="#D1D159" stroke="#D1D159" stroke-width="0.2"/>
<path d="M30.3029 12.1728C31.2148 8.90671 32.7642 10.1475 33.067 11.2571C33.3698 12.3667 33.1478 13.1579 33.4658 14.3229C33.7837 15.488 34.3539 15.9728 34.6567 17.0824C34.9595 18.192 34.3186 20.2799 31.9683 18.2755" stroke="#6A5000" stroke-width="0.2"/>
<path d="M20.2929 16.0579L17.9753 15.1615" stroke="#003100" stroke-width="0.2"/>
<path d="M19.9081 15.9408C19.9058 15.939 19.4755 15.7713 18.9514 15.5693L17.999 15.2011L18.3335 15.752C18.5174 16.0551 18.6695 16.3028 18.6704 16.3033C18.6716 16.3035 18.6998 16.2839 18.7329 16.2596C18.9275 16.1169 19.1335 16.0269 19.3701 15.981C19.5208 15.9517 19.6925 15.939 19.8473 15.946C19.9049 15.9486 19.9168 15.9476 19.908 15.9408L19.9081 15.9408Z" fill="#658D1B"/>
<path d="M19.1148 14.6889L17.9367 15.1447L18.6648 16.3377" stroke="#003100" stroke-width="0.2" stroke-linecap="square"/>
<path d="M19.9309 15.8877C19.9281 15.8875 19.4979 15.7219 18.9735 15.5189L18.0211 15.1504L18.5637 14.9388C18.8627 14.8222 19.1079 14.7275 19.1085 14.7285C19.1096 14.7292 19.1226 14.7647 19.1375 14.8076C19.2242 15.0592 19.3464 15.2757 19.5154 15.4788C19.623 15.6081 19.7556 15.7388 19.8843 15.841C19.9322 15.8794 19.9412 15.8884 19.9309 15.8877L19.9309 15.8877Z" fill="#78BE20"/>
<path d="M22.2235 21.4168C20.359 24.4501 18.6955 21.8951 18.2018 20.1207C17.7167 18.3474 17.8049 15.1041 20.8155 16.2582" fill="white"/>
<path d="M22.2235 21.4168C20.359 24.4501 18.6955 21.8951 18.2018 20.1207C17.7167 18.3474 17.8049 15.1041 20.8155 16.2582" stroke="#6A5000" stroke-width="0.2"/>
<path d="M26.776 21.4141C28.6282 24.4766 26.0631 25.5557 24.4979 25.5668C22.9323 25.5668 20.3819 24.4643 22.2197 21.4141" fill="white"/>
<path d="M26.776 21.4141C28.6282 24.4766 26.0631 25.5557 24.4979 25.5668C22.9323 25.5668 20.3819 24.4643 22.2197 21.4141" stroke="#6A5000" stroke-width="0.2"/>
<path d="M28.1824 16.2576C31.1959 15.1055 31.2694 18.3459 30.7961 20.1201C30.311 21.8935 28.6401 24.466 26.7744 21.4161" fill="white"/>
<path d="M28.1824 16.2576C31.1959 15.1055 31.2694 18.3459 30.7961 20.1201C30.311 21.8935 28.6401 24.466 26.7744 21.4161" stroke="#6A5000" stroke-width="0.2"/>
<path d="M24.4971 13.073C24.506 9.31046 27.1186 10.2117 28.3906 11.3073C29.6573 12.404 31.1836 15.099 28.1832 16.2613" fill="white"/>
<path d="M24.4971 13.073C24.506 9.31046 27.1186 10.2117 28.3906 11.3073C29.6573 12.404 31.1836 15.099 28.1832 16.2613" stroke="#6A5000" stroke-width="0.2"/>
<path d="M20.8142 16.2621C17.8007 15.0896 19.3393 12.4121 20.6069 11.3081C21.8735 10.2114 24.5024 9.31019 24.5004 13.0737" fill="white"/>
<path d="M20.8142 16.2621C17.8007 15.0896 19.3393 12.4121 20.6069 11.3081C21.8735 10.2114 24.5024 9.31019 24.5004 13.0737" stroke="#6A5000" stroke-width="0.2"/>
<path d="M24.5 12.8926V16.1009" stroke="#6A5000" stroke-width="0.2"/>
<path d="M19.0941 17.904C19.2261 18.3877 19.6421 18.8149 19.8269 19.4919C20.0118 20.169 19.8861 20.8057 20.0181 21.2893C20.1502 21.7729 20.487 21.91 21.1234 20.9509C20.5936 22.849 19.6931 22.128 19.5171 21.4832C19.3411 20.8383 19.4701 20.3785 19.2853 19.7015C19.1005 19.0244 18.7691 18.7427 18.5931 18.0979C18.4171 17.453 18.7895 16.2396 20.1554 17.4044C19.1669 17.0739 18.9621 17.4204 19.0941 17.904Z" fill="#D1D159" stroke="#D1D159" stroke-width="0.2"/>
<path d="M21.1235 20.952C20.5943 22.8507 19.6927 22.1303 19.5172 21.4842C19.3416 20.8381 19.4701 20.3788 19.2854 19.7025C19.1006 19.0258 18.7684 18.7429 18.5932 18.0988C18.4179 17.4548 18.7897 16.2409 20.1555 17.4054" stroke="#6A5000" stroke-width="0.2"/>
<path d="M23.0022 23.8728C23.4293 23.8728 23.8992 23.5338 24.4973 23.5338C25.0953 23.5338 25.5652 23.8728 25.9924 23.8728C26.4196 23.8728 26.6332 23.5338 26.0636 22.5167C27.4164 23.7033 26.562 24.5 25.9924 24.5C25.4228 24.5 25.0953 24.2118 24.4973 24.2118C23.8992 24.2118 23.5717 24.5 23.0022 24.5C22.4326 24.5 21.5782 23.7033 22.931 22.5167C22.3614 23.5338 22.575 23.8728 23.0022 23.8728Z" fill="#D1D159" stroke="#D1D159" stroke-width="0.2"/>
<path d="M26.0636 22.5167C27.4164 23.7033 26.562 24.5 25.9924 24.5C25.4228 24.5 25.0953 24.2118 24.4973 24.2118C23.8992 24.2118 23.5717 24.5 23.0022 24.5C22.4326 24.5 21.5782 23.7033 22.931 22.5167" stroke="#6A5000" stroke-width="0.2"/>
<path d="M28.9798 21.2903C29.1118 20.8067 28.9861 20.17 29.171 19.4929C29.3558 18.8159 29.7718 18.3887 29.9038 17.9051C30.0358 17.4214 29.831 17.0749 28.8425 17.4054C30.2084 16.2406 30.5808 17.4541 30.4048 18.0989C30.2288 18.7437 29.8974 19.0254 29.7126 19.7025C29.5278 20.3795 29.6568 20.8394 29.4808 21.4842C29.3048 22.129 28.4043 22.85 27.8745 20.9519C28.5109 21.911 28.8478 21.774 28.9798 21.2903Z" fill="#D1D159" stroke="#D1D159" stroke-width="0.2"/>
<path d="M28.8425 17.4054C30.2084 16.2406 30.5808 17.4541 30.4048 18.0989C30.2288 18.7437 29.8974 19.0254 29.7126 19.7025C29.5278 20.3795 29.6568 20.8394 29.4808 21.4842C29.3048 22.129 28.4043 22.85 27.8745 20.9519" stroke="#6A5000" stroke-width="0.2"/>
<path d="M28.7661 13.7262C28.4205 13.4273 27.8729 13.3728 27.3891 12.9543C26.9053 12.5358 26.6925 11.9327 26.3469 11.6338C26.0013 11.3349 25.6611 11.4597 25.6197 12.6811C25.1112 10.7746 26.1958 10.7278 26.6566 11.1264C27.1174 11.5249 27.2401 11.9873 27.7239 12.4057C28.2077 12.8242 28.615 12.8203 29.0758 13.2188C29.5366 13.6174 29.8344 14.8598 28.1541 14.8732C29.1171 14.4489 29.1117 14.0252 28.7661 13.7262Z" fill="#D1D159" stroke="#D1D159" stroke-width="0.2"/>
<path d="M25.6197 12.6811C25.1112 10.7746 26.1958 10.7278 26.6566 11.1264C27.1174 11.5249 27.2401 11.9873 27.7239 12.4057C28.2077 12.8242 28.615 12.8203 29.0758 13.2188C29.5366 13.6174 29.8344 14.8598 28.1541 14.8732" stroke="#6A5000" stroke-width="0.2"/>
<path d="M22.655 11.6363C22.3094 11.9352 22.0966 12.5383 21.6128 12.9568C21.1289 13.3752 20.5814 13.4298 20.2358 13.7287C19.8902 14.0276 19.8848 14.4514 20.8478 14.8756C19.1675 14.8622 19.4653 13.6198 19.9261 13.2213C20.3869 12.8227 20.7942 12.8267 21.278 12.4082C21.7618 11.9897 21.8845 11.5274 22.3453 11.1288C22.8061 10.7303 23.8907 10.777 23.3822 12.6836C23.3408 11.4622 23.0006 11.3373 22.655 11.6363Z" fill="#D1D159" stroke="#D1D159" stroke-width="0.2"/>
<path d="M20.8478 14.8756C19.1675 14.8622 19.4653 13.6198 19.9261 13.2213C20.3869 12.8227 20.7942 12.8267 21.278 12.4082C21.7618 11.9897 21.8845 11.5274 22.3453 11.1288C22.8061 10.7303 23.8907 10.777 23.3822 12.6836" stroke="#6A5000" stroke-width="0.2"/>
<path d="M20.4619 16.1274L23.0251 17.1188M22.0191 21.7467L23.6032 19.1511M26.9404 21.6883L25.3563 19.0927M28.3712 16.1893L25.8081 17.1807M24.5002 21.4078V19.8328M27.3888 18.9088L26.1306 18.4221M26.2863 14.8652L25.5087 16.1394M22.7144 14.8652L23.4921 16.1394M21.611 18.9089L22.8692 18.4222" stroke="#6A5000" stroke-width="0.2"/>
<path d="M26.4461 17.7908C26.4461 18.4055 26.2409 18.9952 25.8758 19.4299C25.5106 19.8646 25.0153 20.1088 24.4989 20.1088C23.9825 20.1088 23.4872 19.8646 23.1221 19.4299C22.7569 18.9952 22.5518 18.4055 22.5518 17.7908C22.5518 17.176 22.7569 16.5863 23.1221 16.1516C23.4872 15.7169 23.9825 15.4727 24.4989 15.4727C25.0153 15.4727 25.5106 15.7169 25.8758 16.1516C26.2409 16.5863 26.4461 17.176 26.4461 17.7908Z" fill="#FFD100"/>
<path d="M22.6802 18.512L23.8929 19.9557M25.1045 15.6244L26.3172 17.0681M24.3261 15.5215L26.405 17.9964M23.7198 15.6244L26.3185 18.7182M22.5938 17.5839L24.6727 20.0587M22.6803 16.8621L25.279 19.9558M22.9402 16.3464L25.7122 19.6463M26.0576 19.2339L23.2857 15.934M25.1046 19.9558L26.3173 18.5121M22.6802 17.0683L23.8929 15.6246M22.5938 17.9964L24.6726 15.5215M22.6802 18.7182L25.279 15.6244M24.3261 20.0587L26.405 17.5838M23.7198 19.9557L26.3186 16.862M23.2867 19.6462L26.0586 16.3463M25.7122 15.9339L22.9403 19.2338" stroke="#C99700" stroke-width="0.2"/>
<path d="M26.4461 17.7908C26.4461 18.4055 26.2409 18.9952 25.8758 19.4299C25.5106 19.8646 25.0153 20.1088 24.4989 20.1088C23.9825 20.1088 23.4872 19.8646 23.1221 19.4299C22.7569 18.9952 22.5518 18.4055 22.5518 17.7908C22.5518 17.176 22.7569 16.5863 23.1221 16.1516C23.4872 15.7169 23.9825 15.4727 24.4989 15.4727C25.0153 15.4727 25.5106 15.7169 25.8758 16.1516C26.2409 16.5863 26.4461 17.176 26.4461 17.7908Z" stroke="#6A5000" stroke-width="0.2"/>
</g>
<defs>
<clipPath id="clip0_1130_1537">
<rect width="49" height="35" rx="8" fill="white"/>
</clipPath>
</defs>
</svg>
